<?xml version="1.0" encoding="utf-8"?>
<svg xmlns="http://www.w3.org/2000/svg" xmlns:xlink="http://www.w3.org/1999/xlink" width="600" height="400" viewBox="0 0 2400 1600">
<defs>
  <clipPath id="clip740">
    <rect x="0" y="0" width="2400" height="1600"/>
  </clipPath>
</defs>
<path clip-path="url(#clip740)" d="M0 1600 L2400 1600 L2400 0 L0 0  Z" fill="#ffffff" fill-rule="evenodd" fill-opacity="1"/>
<defs>
  <clipPath id="clip741">
    <rect x="480" y="0" width="1681" height="1600"/>
  </clipPath>
</defs>
<path clip-path="url(#clip740)" d="M203.964 1423.18 L2352.76 1423.18 L2352.76 47.2441 L203.964 47.2441  Z" fill="#ffffff" fill-rule="evenodd" fill-opacity="1"/>
<defs>
  <clipPath id="clip742">
    <rect x="203" y="47" width="2150" height="1377"/>
  </clipPath>
</defs>
<polyline clip-path="url(#clip742)" style="stroke:#000000; stroke-linecap:round; stroke-linejoin:round; stroke-width:2; stroke-opacity:0.1; fill:none" points="264.778,1423.18 264.778,47.2441 "/>
<polyline clip-path="url(#clip742)" style="stroke:#000000; stroke-linecap:round; stroke-linejoin:round; stroke-width:2; stroke-opacity:0.1; fill:none" points="602.639,1423.18 602.639,47.2441 "/>
<polyline clip-path="url(#clip742)" style="stroke:#000000; stroke-linecap:round; stroke-linejoin:round; stroke-width:2; stroke-opacity:0.1; fill:none" points="940.499,1423.18 940.499,47.2441 "/>
<polyline clip-path="url(#clip742)" style="stroke:#000000; stroke-linecap:round; stroke-linejoin:round; stroke-width:2; stroke-opacity:0.1; fill:none" points="1278.36,1423.18 1278.36,47.2441 "/>
<polyline clip-path="url(#clip742)" style="stroke:#000000; stroke-linecap:round; stroke-linejoin:round; stroke-width:2; stroke-opacity:0.1; fill:none" points="1616.22,1423.18 1616.22,47.2441 "/>
<polyline clip-path="url(#clip742)" style="stroke:#000000; stroke-linecap:round; stroke-linejoin:round; stroke-width:2; stroke-opacity:0.1; fill:none" points="1954.08,1423.18 1954.08,47.2441 "/>
<polyline clip-path="url(#clip742)" style="stroke:#000000; stroke-linecap:round; stroke-linejoin:round; stroke-width:2; stroke-opacity:0.1; fill:none" points="2291.94,1423.18 2291.94,47.2441 "/>
<polyline clip-path="url(#clip742)" style="stroke:#000000; stroke-linecap:round; stroke-linejoin:round; stroke-width:2; stroke-opacity:0.1; fill:none" points="203.964,1384.24 2352.76,1384.24 "/>
<polyline clip-path="url(#clip742)" style="stroke:#000000; stroke-linecap:round; stroke-linejoin:round; stroke-width:2; stroke-opacity:0.1; fill:none" points="203.964,982.643 2352.76,982.643 "/>
<polyline clip-path="url(#clip742)" style="stroke:#000000; stroke-linecap:round; stroke-linejoin:round; stroke-width:2; stroke-opacity:0.1; fill:none" points="203.964,581.048 2352.76,581.048 "/>
<polyline clip-path="url(#clip742)" style="stroke:#000000; stroke-linecap:round; stroke-linejoin:round; stroke-width:2; stroke-opacity:0.1; fill:none" points="203.964,179.453 2352.76,179.453 "/>
<polyline clip-path="url(#clip740)" style="stroke:#000000; stroke-linecap:round; stroke-linejoin:round; stroke-width:4; stroke-opacity:1; fill:none" points="203.964,1423.18 2352.76,1423.18 "/>
<polyline clip-path="url(#clip740)" style="stroke:#000000; stroke-linecap:round; stroke-linejoin:round; stroke-width:4; stroke-opacity:1; fill:none" points="264.778,1423.18 264.778,1404.28 "/>
<polyline clip-path="url(#clip740)" style="stroke:#000000; stroke-linecap:round; stroke-linejoin:round; stroke-width:4; stroke-opacity:1; fill:none" points="602.639,1423.18 602.639,1404.28 "/>
<polyline clip-path="url(#clip740)" style="stroke:#000000; stroke-linecap:round; stroke-linejoin:round; stroke-width:4; stroke-opacity:1; fill:none" points="940.499,1423.18 940.499,1404.28 "/>
<polyline clip-path="url(#clip740)" style="stroke:#000000; stroke-linecap:round; stroke-linejoin:round; stroke-width:4; stroke-opacity:1; fill:none" points="1278.36,1423.18 1278.36,1404.28 "/>
<polyline clip-path="url(#clip740)" style="stroke:#000000; stroke-linecap:round; stroke-linejoin:round; stroke-width:4; stroke-opacity:1; fill:none" points="1616.22,1423.18 1616.22,1404.28 "/>
<polyline clip-path="url(#clip740)" style="stroke:#000000; stroke-linecap:round; stroke-linejoin:round; stroke-width:4; stroke-opacity:1; fill:none" points="1954.08,1423.18 1954.08,1404.28 "/>
<polyline clip-path="url(#clip740)" style="stroke:#000000; stroke-linecap:round; stroke-linejoin:round; stroke-width:4; stroke-opacity:1; fill:none" points="2291.94,1423.18 2291.94,1404.28 "/>
<path clip-path="url(#clip740)" d="M264.778 1454.1 Q261.167 1454.1 259.339 1457.66 Q257.533 1461.2 257.533 1468.33 Q257.533 1475.44 259.339 1479.01 Q261.167 1482.55 264.778 1482.55 Q268.413 1482.55 270.218 1479.01 Q272.047 1475.44 272.047 1468.33 Q272.047 1461.2 270.218 1457.66 Q268.413 1454.1 264.778 1454.1 M264.778 1450.39 Q270.589 1450.39 273.644 1455 Q276.723 1459.58 276.723 1468.33 Q276.723 1477.06 273.644 1481.67 Q270.589 1486.25 264.778 1486.25 Q258.968 1486.25 255.89 1481.67 Q252.834 1477.06 252.834 1468.33 Q252.834 1459.58 255.89 1455 Q258.968 1450.39 264.778 1450.39 Z" fill="#000000" fill-rule="nonzero" fill-opacity="1" /><path clip-path="url(#clip740)" d="M562.246 1481.64 L569.884 1481.64 L569.884 1455.28 L561.574 1456.95 L561.574 1452.69 L569.838 1451.02 L574.514 1451.02 L574.514 1481.64 L582.153 1481.64 L582.153 1485.58 L562.246 1485.58 L562.246 1481.64 Z" fill="#000000" fill-rule="nonzero" fill-opacity="1" /><path clip-path="url(#clip740)" d="M601.597 1454.1 Q597.986 1454.1 596.157 1457.66 Q594.352 1461.2 594.352 1468.33 Q594.352 1475.44 596.157 1479.01 Q597.986 1482.55 601.597 1482.55 Q605.231 1482.55 607.037 1479.01 Q608.866 1475.44 608.866 1468.33 Q608.866 1461.2 607.037 1457.66 Q605.231 1454.1 601.597 1454.1 M601.597 1450.39 Q607.407 1450.39 610.463 1455 Q613.542 1459.58 613.542 1468.33 Q613.542 1477.06 610.463 1481.67 Q607.407 1486.25 601.597 1486.25 Q595.787 1486.25 592.708 1481.67 Q589.653 1477.06 589.653 1468.33 Q589.653 1459.58 592.708 1455 Q595.787 1450.39 601.597 1450.39 Z" fill="#000000" fill-rule="nonzero" fill-opacity="1" /><path clip-path="url(#clip740)" d="M631.759 1454.1 Q628.148 1454.1 626.319 1457.66 Q624.514 1461.2 624.514 1468.33 Q624.514 1475.44 626.319 1479.01 Q628.148 1482.55 631.759 1482.55 Q635.393 1482.55 637.199 1479.01 Q639.028 1475.44 639.028 1468.33 Q639.028 1461.2 637.199 1457.66 Q635.393 1454.1 631.759 1454.1 M631.759 1450.39 Q637.569 1450.39 640.625 1455 Q643.703 1459.58 643.703 1468.33 Q643.703 1477.06 640.625 1481.67 Q637.569 1486.25 631.759 1486.25 Q625.949 1486.25 622.87 1481.67 Q619.815 1477.06 619.815 1468.33 Q619.815 1459.58 622.87 1455 Q625.949 1450.39 631.759 1450.39 Z" fill="#000000" fill-rule="nonzero" fill-opacity="1" /><path clip-path="url(#clip740)" d="M904.192 1481.64 L920.511 1481.64 L920.511 1485.58 L898.567 1485.58 L898.567 1481.64 Q901.229 1478.89 905.812 1474.26 Q910.418 1469.61 911.599 1468.27 Q913.844 1465.74 914.724 1464.01 Q915.627 1462.25 915.627 1460.56 Q915.627 1457.8 913.682 1456.07 Q911.761 1454.33 908.659 1454.33 Q906.46 1454.33 904.006 1455.09 Q901.576 1455.86 898.798 1457.41 L898.798 1452.69 Q901.622 1451.55 904.076 1450.97 Q906.53 1450.39 908.567 1450.39 Q913.937 1450.39 917.131 1453.08 Q920.326 1455.77 920.326 1460.26 Q920.326 1462.39 919.516 1464.31 Q918.729 1466.2 916.622 1468.8 Q916.043 1469.47 912.942 1472.69 Q909.84 1475.88 904.192 1481.64 Z" fill="#000000" fill-rule="nonzero" fill-opacity="1" /><path clip-path="url(#clip740)" d="M940.326 1454.1 Q936.715 1454.1 934.886 1457.66 Q933.08 1461.2 933.08 1468.33 Q933.08 1475.44 934.886 1479.01 Q936.715 1482.55 940.326 1482.55 Q943.96 1482.55 945.765 1479.01 Q947.594 1475.44 947.594 1468.33 Q947.594 1461.2 945.765 1457.66 Q943.96 1454.1 940.326 1454.1 M940.326 1450.39 Q946.136 1450.39 949.191 1455 Q952.27 1459.58 952.27 1468.33 Q952.27 1477.06 949.191 1481.67 Q946.136 1486.25 940.326 1486.25 Q934.516 1486.25 931.437 1481.67 Q928.381 1477.06 928.381 1468.33 Q928.381 1459.58 931.437 1455 Q934.516 1450.39 940.326 1450.39 Z" fill="#000000" fill-rule="nonzero" fill-opacity="1" /><path clip-path="url(#clip740)" d="M970.488 1454.1 Q966.876 1454.1 965.048 1457.66 Q963.242 1461.2 963.242 1468.33 Q963.242 1475.44 965.048 1479.01 Q966.876 1482.55 970.488 1482.55 Q974.122 1482.55 975.927 1479.01 Q977.756 1475.44 977.756 1468.33 Q977.756 1461.2 975.927 1457.66 Q974.122 1454.1 970.488 1454.1 M970.488 1450.39 Q976.298 1450.39 979.353 1455 Q982.432 1459.58 982.432 1468.33 Q982.432 1477.06 979.353 1481.67 Q976.298 1486.25 970.488 1486.25 Q964.677 1486.25 961.599 1481.67 Q958.543 1477.06 958.543 1468.33 Q958.543 1459.58 961.599 1455 Q964.677 1450.39 970.488 1450.39 Z" fill="#000000" fill-rule="nonzero" fill-opacity="1" /><path clip-path="url(#clip740)" d="M1252.12 1466.95 Q1255.48 1467.66 1257.35 1469.93 Q1259.25 1472.2 1259.25 1475.53 Q1259.25 1480.65 1255.73 1483.45 Q1252.21 1486.25 1245.73 1486.25 Q1243.56 1486.25 1241.24 1485.81 Q1238.95 1485.39 1236.5 1484.54 L1236.5 1480.02 Q1238.44 1481.16 1240.76 1481.74 Q1243.07 1482.32 1245.59 1482.32 Q1249.99 1482.32 1252.28 1480.58 Q1254.6 1478.84 1254.6 1475.53 Q1254.6 1472.48 1252.45 1470.77 Q1250.32 1469.03 1246.5 1469.03 L1242.47 1469.03 L1242.47 1465.19 L1246.68 1465.19 Q1250.13 1465.19 1251.96 1463.82 Q1253.79 1462.43 1253.79 1459.84 Q1253.79 1457.18 1251.89 1455.77 Q1250.01 1454.33 1246.5 1454.33 Q1244.58 1454.33 1242.38 1454.75 Q1240.18 1455.16 1237.54 1456.04 L1237.54 1451.88 Q1240.2 1451.14 1242.52 1450.77 Q1244.85 1450.39 1246.91 1450.39 Q1252.24 1450.39 1255.34 1452.83 Q1258.44 1455.23 1258.44 1459.35 Q1258.44 1462.22 1256.8 1464.21 Q1255.15 1466.18 1252.12 1466.95 Z" fill="#000000" fill-rule="nonzero" fill-opacity="1" /><path clip-path="url(#clip740)" d="M1278.12 1454.1 Q1274.51 1454.1 1272.68 1457.66 Q1270.87 1461.2 1270.87 1468.33 Q1270.87 1475.44 1272.68 1479.01 Q1274.51 1482.55 1278.12 1482.55 Q1281.75 1482.55 1283.56 1479.01 Q1285.39 1475.44 1285.39 1468.33 Q1285.39 1461.2 1283.56 1457.66 Q1281.75 1454.1 1278.12 1454.1 M1278.12 1450.39 Q1283.93 1450.39 1286.98 1455 Q1290.06 1459.58 1290.06 1468.33 Q1290.06 1477.06 1286.98 1481.67 Q1283.93 1486.25 1278.12 1486.25 Q1272.31 1486.25 1269.23 1481.67 Q1266.17 1477.06 1266.17 1468.33 Q1266.17 1459.58 1269.23 1455 Q1272.31 1450.39 1278.12 1450.39 Z" fill="#000000" fill-rule="nonzero" fill-opacity="1" /><path clip-path="url(#clip740)" d="M1308.28 1454.1 Q1304.67 1454.1 1302.84 1457.66 Q1301.03 1461.2 1301.03 1468.33 Q1301.03 1475.44 1302.84 1479.01 Q1304.67 1482.55 1308.28 1482.55 Q1311.91 1482.55 1313.72 1479.01 Q1315.55 1475.44 1315.55 1468.33 Q1315.55 1461.2 1313.72 1457.66 Q1311.91 1454.1 1308.28 1454.1 M1308.28 1450.39 Q1314.09 1450.39 1317.14 1455 Q1320.22 1459.58 1320.22 1468.33 Q1320.22 1477.06 1317.14 1481.67 Q1314.09 1486.25 1308.28 1486.25 Q1302.47 1486.25 1299.39 1481.67 Q1296.33 1477.06 1296.33 1468.33 Q1296.33 1459.58 1299.39 1455 Q1302.47 1450.39 1308.28 1450.39 Z" fill="#000000" fill-rule="nonzero" fill-opacity="1" /><path clip-path="url(#clip740)" d="M1589.31 1455.09 L1577.51 1473.54 L1589.31 1473.54 L1589.31 1455.09 M1588.08 1451.02 L1593.96 1451.02 L1593.96 1473.54 L1598.89 1473.54 L1598.89 1477.43 L1593.96 1477.43 L1593.96 1485.58 L1589.31 1485.58 L1589.31 1477.43 L1573.71 1477.43 L1573.71 1472.92 L1588.08 1451.02 Z" fill="#000000" fill-rule="nonzero" fill-opacity="1" /><path clip-path="url(#clip740)" d="M1616.63 1454.1 Q1613.01 1454.1 1611.19 1457.66 Q1609.38 1461.2 1609.38 1468.33 Q1609.38 1475.44 1611.19 1479.01 Q1613.01 1482.55 1616.63 1482.55 Q1620.26 1482.55 1622.07 1479.01 Q1623.89 1475.44 1623.89 1468.33 Q1623.89 1461.2 1622.07 1457.66 Q1620.26 1454.1 1616.63 1454.1 M1616.63 1450.39 Q1622.44 1450.39 1625.49 1455 Q1628.57 1459.58 1628.57 1468.33 Q1628.57 1477.06 1625.49 1481.67 Q1622.44 1486.25 1616.63 1486.25 Q1610.82 1486.25 1607.74 1481.67 Q1604.68 1477.06 1604.68 1468.33 Q1604.68 1459.58 1607.74 1455 Q1610.82 1450.39 1616.63 1450.39 Z" fill="#000000" fill-rule="nonzero" fill-opacity="1" /><path clip-path="url(#clip740)" d="M1646.79 1454.1 Q1643.18 1454.1 1641.35 1457.66 Q1639.54 1461.2 1639.54 1468.33 Q1639.54 1475.44 1641.35 1479.01 Q1643.18 1482.55 1646.79 1482.55 Q1650.42 1482.55 1652.23 1479.01 Q1654.06 1475.44 1654.06 1468.33 Q1654.06 1461.2 1652.23 1457.66 Q1650.42 1454.1 1646.79 1454.1 M1646.79 1450.39 Q1652.6 1450.39 1655.65 1455 Q1658.73 1459.58 1658.73 1468.33 Q1658.73 1477.06 1655.65 1481.67 Q1652.6 1486.25 1646.79 1486.25 Q1640.98 1486.25 1637.9 1481.67 Q1634.84 1477.06 1634.84 1468.33 Q1634.84 1459.58 1637.9 1455 Q1640.98 1450.39 1646.79 1450.39 Z" fill="#000000" fill-rule="nonzero" fill-opacity="1" /><path clip-path="url(#clip740)" d="M1913.7 1451.02 L1932.06 1451.02 L1932.06 1454.96 L1917.98 1454.96 L1917.98 1463.43 Q1919 1463.08 1920.02 1462.92 Q1921.04 1462.73 1922.06 1462.73 Q1927.84 1462.73 1931.22 1465.9 Q1934.6 1469.08 1934.6 1474.49 Q1934.6 1480.07 1931.13 1483.17 Q1927.66 1486.25 1921.34 1486.25 Q1919.16 1486.25 1916.89 1485.88 Q1914.65 1485.51 1912.24 1484.77 L1912.24 1480.07 Q1914.32 1481.2 1916.55 1481.76 Q1918.77 1482.32 1921.25 1482.32 Q1925.25 1482.32 1927.59 1480.21 Q1929.93 1478.1 1929.93 1474.49 Q1929.93 1470.88 1927.59 1468.77 Q1925.25 1466.67 1921.25 1466.67 Q1919.37 1466.67 1917.5 1467.08 Q1915.64 1467.5 1913.7 1468.38 L1913.7 1451.02 Z" fill="#000000" fill-rule="nonzero" fill-opacity="1" /><path clip-path="url(#clip740)" d="M1953.81 1454.1 Q1950.2 1454.1 1948.37 1457.66 Q1946.57 1461.2 1946.57 1468.33 Q1946.57 1475.44 1948.37 1479.01 Q1950.2 1482.55 1953.81 1482.55 Q1957.45 1482.55 1959.25 1479.01 Q1961.08 1475.44 1961.08 1468.33 Q1961.08 1461.2 1959.25 1457.66 Q1957.45 1454.1 1953.81 1454.1 M1953.81 1450.39 Q1959.62 1450.39 1962.68 1455 Q1965.76 1459.58 1965.76 1468.33 Q1965.76 1477.06 1962.68 1481.67 Q1959.62 1486.25 1953.81 1486.25 Q1948 1486.25 1944.93 1481.67 Q1941.87 1477.06 1941.87 1468.33 Q1941.87 1459.58 1944.93 1455 Q1948 1450.39 1953.81 1450.39 Z" fill="#000000" fill-rule="nonzero" fill-opacity="1" /><path clip-path="url(#clip740)" d="M1983.98 1454.1 Q1980.37 1454.1 1978.54 1457.66 Q1976.73 1461.2 1976.73 1468.33 Q1976.73 1475.44 1978.54 1479.01 Q1980.37 1482.55 1983.98 1482.55 Q1987.61 1482.55 1989.42 1479.01 Q1991.24 1475.44 1991.24 1468.33 Q1991.24 1461.2 1989.42 1457.66 Q1987.61 1454.1 1983.98 1454.1 M1983.98 1450.39 Q1989.79 1450.39 1992.84 1455 Q1995.92 1459.58 1995.92 1468.33 Q1995.92 1477.06 1992.84 1481.67 Q1989.79 1486.25 1983.98 1486.25 Q1978.17 1486.25 1975.09 1481.67 Q1972.03 1477.06 1972.03 1468.33 Q1972.03 1459.58 1975.09 1455 Q1978.17 1450.39 1983.98 1450.39 Z" fill="#000000" fill-rule="nonzero" fill-opacity="1" /><path clip-path="url(#clip740)" d="M2262.27 1466.44 Q2259.12 1466.44 2257.27 1468.59 Q2255.44 1470.74 2255.44 1474.49 Q2255.44 1478.22 2257.27 1480.39 Q2259.12 1482.55 2262.27 1482.55 Q2265.41 1482.55 2267.24 1480.39 Q2269.09 1478.22 2269.09 1474.49 Q2269.09 1470.74 2267.24 1468.59 Q2265.41 1466.44 2262.27 1466.44 M2271.55 1451.78 L2271.55 1456.04 Q2269.79 1455.21 2267.98 1454.77 Q2266.2 1454.33 2264.44 1454.33 Q2259.81 1454.33 2257.36 1457.45 Q2254.93 1460.58 2254.58 1466.9 Q2255.95 1464.89 2258.01 1463.82 Q2260.07 1462.73 2262.54 1462.73 Q2267.75 1462.73 2270.76 1465.9 Q2273.79 1469.05 2273.79 1474.49 Q2273.79 1479.82 2270.64 1483.03 Q2267.5 1486.25 2262.27 1486.25 Q2256.27 1486.25 2253.1 1481.67 Q2249.93 1477.06 2249.93 1468.33 Q2249.93 1460.14 2253.82 1455.28 Q2257.71 1450.39 2264.26 1450.39 Q2266.02 1450.39 2267.8 1450.74 Q2269.6 1451.09 2271.55 1451.78 Z" fill="#000000" fill-rule="nonzero" fill-opacity="1" /><path clip-path="url(#clip740)" d="M2291.85 1454.1 Q2288.24 1454.1 2286.41 1457.66 Q2284.6 1461.2 2284.6 1468.33 Q2284.6 1475.44 2286.41 1479.01 Q2288.24 1482.55 2291.85 1482.55 Q2295.48 1482.55 2297.29 1479.01 Q2299.12 1475.44 2299.12 1468.33 Q2299.12 1461.2 2297.29 1457.66 Q2295.48 1454.1 2291.85 1454.1 M2291.85 1450.39 Q2297.66 1450.39 2300.71 1455 Q2303.79 1459.58 2303.79 1468.33 Q2303.79 1477.06 2300.71 1481.67 Q2297.66 1486.25 2291.85 1486.25 Q2286.04 1486.25 2282.96 1481.67 Q2279.9 1477.06 2279.9 1468.33 Q2279.9 1459.58 2282.96 1455 Q2286.04 1450.39 2291.85 1450.39 Z" fill="#000000" fill-rule="nonzero" fill-opacity="1" /><path clip-path="url(#clip740)" d="M2322.01 1454.1 Q2318.4 1454.1 2316.57 1457.66 Q2314.76 1461.2 2314.76 1468.33 Q2314.76 1475.44 2316.57 1479.01 Q2318.4 1482.55 2322.01 1482.55 Q2325.64 1482.55 2327.45 1479.01 Q2329.28 1475.44 2329.28 1468.33 Q2329.28 1461.2 2327.45 1457.66 Q2325.64 1454.1 2322.01 1454.1 M2322.01 1450.39 Q2327.82 1450.39 2330.88 1455 Q2333.95 1459.58 2333.95 1468.33 Q2333.95 1477.06 2330.88 1481.67 Q2327.82 1486.25 2322.01 1486.25 Q2316.2 1486.25 2313.12 1481.67 Q2310.07 1477.06 2310.07 1468.33 Q2310.07 1459.58 2313.12 1455 Q2316.2 1450.39 2322.01 1450.39 Z" fill="#000000" fill-rule="nonzero" fill-opacity="1" /><path clip-path="url(#clip740)" d="M1110.86 1522.27 L1110.86 1532.4 L1122.93 1532.4 L1122.93 1536.95 L1110.86 1536.95 L1110.86 1556.3 Q1110.86 1560.66 1112.04 1561.9 Q1113.25 1563.14 1116.91 1563.14 L1122.93 1563.14 L1122.93 1568.04 L1116.91 1568.04 Q1110.13 1568.04 1107.55 1565.53 Q1104.97 1562.98 1104.97 1556.3 L1104.97 1536.95 L1100.68 1536.95 L1100.68 1532.4 L1104.97 1532.4 L1104.97 1522.27 L1110.86 1522.27 Z" fill="#000000" fill-rule="nonzero" fill-opacity="1" /><path clip-path="url(#clip740)" d="M1130.63 1532.4 L1136.48 1532.4 L1136.48 1568.04 L1130.63 1568.04 L1130.63 1532.4 M1130.63 1518.52 L1136.48 1518.52 L1136.48 1525.93 L1130.63 1525.93 L1130.63 1518.52 Z" fill="#000000" fill-rule="nonzero" fill-opacity="1" /><path clip-path="url(#clip740)" d="M1176.49 1539.24 Q1178.69 1535.29 1181.74 1533.41 Q1184.8 1531.54 1188.94 1531.54 Q1194.51 1531.54 1197.53 1535.45 Q1200.55 1539.33 1200.55 1546.53 L1200.55 1568.04 L1194.67 1568.04 L1194.67 1546.72 Q1194.67 1541.59 1192.85 1539.11 Q1191.04 1536.63 1187.31 1536.63 Q1182.76 1536.63 1180.12 1539.65 Q1177.48 1542.68 1177.48 1547.9 L1177.48 1568.04 L1171.59 1568.04 L1171.59 1546.72 Q1171.59 1541.56 1169.78 1539.11 Q1167.96 1536.63 1164.17 1536.63 Q1159.69 1536.63 1157.05 1539.68 Q1154.4 1542.71 1154.4 1547.9 L1154.4 1568.04 L1148.52 1568.04 L1148.52 1532.4 L1154.4 1532.4 L1154.4 1537.93 Q1156.41 1534.66 1159.21 1533.1 Q1162.01 1531.54 1165.86 1531.54 Q1169.74 1531.54 1172.45 1533.51 Q1175.19 1535.48 1176.49 1539.24 Z" fill="#000000" fill-rule="nonzero" fill-opacity="1" /><path clip-path="url(#clip740)" d="M1242.73 1548.76 L1242.73 1551.62 L1215.8 1551.62 Q1216.18 1557.67 1219.43 1560.85 Q1222.71 1564 1228.53 1564 Q1231.91 1564 1235.06 1563.17 Q1238.24 1562.35 1241.36 1560.69 L1241.36 1566.23 Q1238.21 1567.57 1234.9 1568.27 Q1231.59 1568.97 1228.18 1568.97 Q1219.65 1568.97 1214.65 1564 Q1209.69 1559.04 1209.69 1550.57 Q1209.69 1541.82 1214.4 1536.69 Q1219.14 1531.54 1227.16 1531.54 Q1234.36 1531.54 1238.53 1536.18 Q1242.73 1540.8 1242.73 1548.76 M1236.87 1547.04 Q1236.81 1542.23 1234.17 1539.37 Q1231.56 1536.5 1227.23 1536.5 Q1222.33 1536.5 1219.37 1539.27 Q1216.44 1542.04 1215.99 1547.07 L1236.87 1547.04 Z" fill="#000000" fill-rule="nonzero" fill-opacity="1" /><path clip-path="url(#clip740)" d="M1275.07 1533.45 L1275.07 1538.98 Q1272.58 1537.71 1269.91 1537.07 Q1267.24 1536.44 1264.37 1536.44 Q1260.01 1536.44 1257.81 1537.77 Q1255.65 1539.11 1255.65 1541.79 Q1255.65 1543.82 1257.21 1545 Q1258.77 1546.15 1263.48 1547.2 L1265.49 1547.64 Q1271.72 1548.98 1274.33 1551.43 Q1276.98 1553.85 1276.98 1558.21 Q1276.98 1563.17 1273.03 1566.07 Q1269.11 1568.97 1262.24 1568.97 Q1259.37 1568.97 1256.25 1568.39 Q1253.17 1567.85 1249.73 1566.74 L1249.73 1560.69 Q1252.98 1562.38 1256.13 1563.24 Q1259.28 1564.07 1262.37 1564.07 Q1266.5 1564.07 1268.73 1562.66 Q1270.96 1561.23 1270.96 1558.65 Q1270.96 1556.27 1269.34 1554.99 Q1267.74 1553.72 1262.3 1552.54 L1260.27 1552.07 Q1254.82 1550.92 1252.4 1548.56 Q1249.98 1546.18 1249.98 1542.04 Q1249.98 1537.01 1253.55 1534.27 Q1257.11 1531.54 1263.67 1531.54 Q1266.92 1531.54 1269.78 1532.01 Q1272.65 1532.49 1275.07 1533.45 Z" fill="#000000" fill-rule="nonzero" fill-opacity="1" /><path clip-path="url(#clip740)" d="M1321.09 1518.58 Q1316.82 1525.9 1314.76 1533.06 Q1312.69 1540.23 1312.69 1547.58 Q1312.69 1554.93 1314.76 1562.16 Q1316.86 1569.35 1321.09 1576.64 L1316 1576.64 Q1311.22 1569.16 1308.84 1561.93 Q1306.48 1554.71 1306.48 1547.58 Q1306.48 1540.48 1308.84 1533.29 Q1311.19 1526.09 1316 1518.58 L1321.09 1518.58 Z" fill="#000000" fill-rule="nonzero" fill-opacity="1" /><path clip-path="url(#clip740)" d="M1355.18 1533.45 L1355.18 1538.98 Q1352.7 1537.71 1350.02 1537.07 Q1347.35 1536.44 1344.48 1536.44 Q1340.12 1536.44 1337.93 1537.77 Q1335.76 1539.11 1335.76 1541.79 Q1335.76 1543.82 1337.32 1545 Q1338.88 1546.15 1343.59 1547.2 L1345.6 1547.64 Q1351.84 1548.98 1354.45 1551.43 Q1357.09 1553.85 1357.09 1558.21 Q1357.09 1563.17 1353.14 1566.07 Q1349.23 1568.97 1342.35 1568.97 Q1339.49 1568.97 1336.37 1568.39 Q1333.28 1567.85 1329.84 1566.74 L1329.84 1560.69 Q1333.09 1562.38 1336.24 1563.24 Q1339.39 1564.07 1342.48 1564.07 Q1346.62 1564.07 1348.84 1562.66 Q1351.07 1561.23 1351.07 1558.65 Q1351.07 1556.27 1349.45 1554.99 Q1347.86 1553.72 1342.41 1552.54 L1340.38 1552.07 Q1334.93 1550.92 1332.52 1548.56 Q1330.1 1546.18 1330.1 1542.04 Q1330.1 1537.01 1333.66 1534.27 Q1337.23 1531.54 1343.78 1531.54 Q1347.03 1531.54 1349.89 1532.01 Q1352.76 1532.49 1355.18 1533.45 Z" fill="#000000" fill-rule="nonzero" fill-opacity="1" /><path clip-path="url(#clip740)" d="M1396.91 1548.76 L1396.91 1551.62 L1369.98 1551.62 Q1370.36 1557.67 1373.61 1560.85 Q1376.88 1564 1382.71 1564 Q1386.08 1564 1389.23 1563.17 Q1392.42 1562.35 1395.54 1560.69 L1395.54 1566.23 Q1392.39 1567.57 1389.08 1568.27 Q1385.77 1568.97 1382.36 1568.97 Q1373.83 1568.97 1368.83 1564 Q1363.87 1559.04 1363.87 1550.57 Q1363.87 1541.82 1368.58 1536.69 Q1373.32 1531.54 1381.34 1531.54 Q1388.53 1531.54 1392.7 1536.18 Q1396.91 1540.8 1396.91 1548.76 M1391.05 1547.04 Q1390.99 1542.23 1388.34 1539.37 Q1385.73 1536.5 1381.4 1536.5 Q1376.5 1536.5 1373.54 1539.27 Q1370.61 1542.04 1370.17 1547.07 L1391.05 1547.04 Z" fill="#000000" fill-rule="nonzero" fill-opacity="1" /><path clip-path="url(#clip740)" d="M1432.17 1533.76 L1432.17 1539.24 Q1429.69 1537.87 1427.17 1537.2 Q1424.69 1536.5 1422.15 1536.5 Q1416.45 1536.5 1413.3 1540.13 Q1410.15 1543.73 1410.15 1550.25 Q1410.15 1556.78 1413.3 1560.4 Q1416.45 1564 1422.15 1564 Q1424.69 1564 1427.17 1563.33 Q1429.69 1562.63 1432.17 1561.26 L1432.17 1566.68 Q1429.72 1567.82 1427.08 1568.39 Q1424.47 1568.97 1421.51 1568.97 Q1413.46 1568.97 1408.71 1563.91 Q1403.97 1558.85 1403.97 1550.25 Q1403.97 1541.53 1408.75 1536.53 Q1413.55 1531.54 1421.89 1531.54 Q1424.6 1531.54 1427.17 1532.11 Q1429.75 1532.65 1432.17 1533.76 Z" fill="#000000" fill-rule="nonzero" fill-opacity="1" /><path clip-path="url(#clip740)" d="M1441.43 1518.58 L1446.53 1518.58 Q1451.3 1526.09 1453.66 1533.29 Q1456.04 1540.48 1456.04 1547.58 Q1456.04 1554.71 1453.66 1561.93 Q1451.3 1569.16 1446.53 1576.64 L1441.43 1576.64 Q1445.67 1569.35 1447.74 1562.16 Q1449.84 1554.93 1449.84 1547.58 Q1449.84 1540.23 1447.74 1533.06 Q1445.67 1525.9 1441.43 1518.58 Z" fill="#000000" fill-rule="nonzero" fill-opacity="1" /><polyline clip-path="url(#clip740)" style="stroke:#000000; stroke-linecap:round; stroke-linejoin:round; stroke-width:4; stroke-opacity:1; fill:none" points="203.964,1423.18 203.964,47.2441 "/>
<polyline clip-path="url(#clip740)" style="stroke:#000000; stroke-linecap:round; stroke-linejoin:round; stroke-width:4; stroke-opacity:1; fill:none" points="203.964,1384.24 222.861,1384.24 "/>
<polyline clip-path="url(#clip740)" style="stroke:#000000; stroke-linecap:round; stroke-linejoin:round; stroke-width:4; stroke-opacity:1; fill:none" points="203.964,982.643 222.861,982.643 "/>
<polyline clip-path="url(#clip740)" style="stroke:#000000; stroke-linecap:round; stroke-linejoin:round; stroke-width:4; stroke-opacity:1; fill:none" points="203.964,581.048 222.861,581.048 "/>
<polyline clip-path="url(#clip740)" style="stroke:#000000; stroke-linecap:round; stroke-linejoin:round; stroke-width:4; stroke-opacity:1; fill:none" points="203.964,179.453 222.861,179.453 "/>
<path clip-path="url(#clip740)" d="M156.019 1370.04 Q152.408 1370.04 150.579 1373.6 Q148.774 1377.14 148.774 1384.27 Q148.774 1391.38 150.579 1394.94 Q152.408 1398.49 156.019 1398.49 Q159.653 1398.49 161.459 1394.94 Q163.288 1391.38 163.288 1384.27 Q163.288 1377.14 161.459 1373.6 Q159.653 1370.04 156.019 1370.04 M156.019 1366.33 Q161.829 1366.33 164.885 1370.94 Q167.964 1375.52 167.964 1384.27 Q167.964 1393 164.885 1397.61 Q161.829 1402.19 156.019 1402.19 Q150.209 1402.19 147.13 1397.61 Q144.075 1393 144.075 1384.27 Q144.075 1375.52 147.13 1370.94 Q150.209 1366.33 156.019 1366.33 Z" fill="#000000" fill-rule="nonzero" fill-opacity="1" /><path clip-path="url(#clip740)" d="M116.668 995.988 L124.306 995.988 L124.306 969.623 L115.996 971.289 L115.996 967.03 L124.26 965.363 L128.936 965.363 L128.936 995.988 L136.575 995.988 L136.575 999.923 L116.668 999.923 L116.668 995.988 Z" fill="#000000" fill-rule="nonzero" fill-opacity="1" /><path clip-path="url(#clip740)" d="M156.019 968.442 Q152.408 968.442 150.579 972.007 Q148.774 975.548 148.774 982.678 Q148.774 989.784 150.579 993.349 Q152.408 996.891 156.019 996.891 Q159.653 996.891 161.459 993.349 Q163.288 989.784 163.288 982.678 Q163.288 975.548 161.459 972.007 Q159.653 968.442 156.019 968.442 M156.019 964.738 Q161.829 964.738 164.885 969.345 Q167.964 973.928 167.964 982.678 Q167.964 991.405 164.885 996.011 Q161.829 1000.59 156.019 1000.59 Q150.209 1000.59 147.13 996.011 Q144.075 991.405 144.075 982.678 Q144.075 973.928 147.13 969.345 Q150.209 964.738 156.019 964.738 Z" fill="#000000" fill-rule="nonzero" fill-opacity="1" /><path clip-path="url(#clip740)" d="M119.885 594.393 L136.204 594.393 L136.204 598.328 L114.26 598.328 L114.26 594.393 Q116.922 591.639 121.505 587.009 Q126.112 582.356 127.292 581.014 Q129.538 578.491 130.417 576.754 Q131.32 574.995 131.32 573.305 Q131.32 570.551 129.376 568.815 Q127.455 567.079 124.353 567.079 Q122.154 567.079 119.7 567.842 Q117.269 568.606 114.492 570.157 L114.492 565.435 Q117.316 564.301 119.769 563.722 Q122.223 563.143 124.26 563.143 Q129.63 563.143 132.825 565.829 Q136.019 568.514 136.019 573.004 Q136.019 575.134 135.209 577.055 Q134.422 578.953 132.316 581.546 Q131.737 582.217 128.635 585.435 Q125.533 588.629 119.885 594.393 Z" fill="#000000" fill-rule="nonzero" fill-opacity="1" /><path clip-path="url(#clip740)" d="M156.019 566.847 Q152.408 566.847 150.579 570.412 Q148.774 573.954 148.774 581.083 Q148.774 588.19 150.579 591.754 Q152.408 595.296 156.019 595.296 Q159.653 595.296 161.459 591.754 Q163.288 588.19 163.288 581.083 Q163.288 573.954 161.459 570.412 Q159.653 566.847 156.019 566.847 M156.019 563.143 Q161.829 563.143 164.885 567.75 Q167.964 572.333 167.964 581.083 Q167.964 589.81 164.885 594.416 Q161.829 599 156.019 599 Q150.209 599 147.13 594.416 Q144.075 589.81 144.075 581.083 Q144.075 572.333 147.13 567.75 Q150.209 563.143 156.019 563.143 Z" fill="#000000" fill-rule="nonzero" fill-opacity="1" /><path clip-path="url(#clip740)" d="M130.024 178.099 Q133.38 178.817 135.255 181.085 Q137.154 183.354 137.154 186.687 Q137.154 191.803 133.635 194.604 Q130.117 197.405 123.635 197.405 Q121.459 197.405 119.144 196.965 Q116.853 196.548 114.399 195.692 L114.399 191.178 Q116.343 192.312 118.658 192.891 Q120.973 193.47 123.496 193.47 Q127.894 193.47 130.186 191.733 Q132.501 189.997 132.501 186.687 Q132.501 183.632 130.348 181.919 Q128.218 180.183 124.399 180.183 L120.371 180.183 L120.371 176.34 L124.584 176.34 Q128.033 176.34 129.862 174.974 Q131.691 173.585 131.691 170.993 Q131.691 168.331 129.792 166.919 Q127.917 165.484 124.399 165.484 Q122.478 165.484 120.279 165.9 Q118.08 166.317 115.441 167.197 L115.441 163.03 Q118.103 162.289 120.418 161.919 Q122.755 161.548 124.816 161.548 Q130.14 161.548 133.242 163.979 Q136.343 166.386 136.343 170.507 Q136.343 173.377 134.7 175.368 Q133.056 177.335 130.024 178.099 Z" fill="#000000" fill-rule="nonzero" fill-opacity="1" /><path clip-path="url(#clip740)" d="M156.019 165.252 Q152.408 165.252 150.579 168.817 Q148.774 172.359 148.774 179.488 Q148.774 186.595 150.579 190.159 Q152.408 193.701 156.019 193.701 Q159.653 193.701 161.459 190.159 Q163.288 186.595 163.288 179.488 Q163.288 172.359 161.459 168.817 Q159.653 165.252 156.019 165.252 M156.019 161.548 Q161.829 161.548 164.885 166.155 Q167.964 170.738 167.964 179.488 Q167.964 188.215 164.885 192.821 Q161.829 197.405 156.019 197.405 Q150.209 197.405 147.13 192.821 Q144.075 188.215 144.075 179.488 Q144.075 170.738 147.13 166.155 Q150.209 161.548 156.019 161.548 Z" fill="#000000" fill-rule="nonzero" fill-opacity="1" /><path clip-path="url(#clip740)" d="M18.0438 930.623 L24.314 930.623 Q22.5634 934.284 21.704 937.53 Q20.8447 940.777 20.8447 943.8 Q20.8447 949.052 22.8817 951.917 Q24.9187 954.749 28.6745 954.749 Q31.8255 954.749 33.4488 952.871 Q35.0402 950.962 36.0269 945.678 L36.8226 941.795 Q38.1912 934.602 41.6605 931.196 Q45.098 927.759 50.8908 927.759 Q57.7976 927.759 61.3624 932.406 Q64.9272 937.021 64.9272 945.965 Q64.9272 949.338 64.1633 953.158 Q63.3994 956.945 61.9035 961.019 L55.2831 961.019 Q57.4793 957.105 58.5933 953.349 Q59.7073 949.593 59.7073 945.965 Q59.7073 940.458 57.543 937.466 Q55.3786 934.475 51.3682 934.475 Q47.8671 934.475 45.8937 936.639 Q43.9204 938.771 42.9337 943.673 L42.1698 947.588 Q40.7375 954.781 37.682 957.996 Q34.6264 961.21 29.1837 961.21 Q22.8817 961.21 19.2532 956.786 Q15.6248 952.33 15.6248 944.532 Q15.6248 941.19 16.2295 937.721 Q16.8343 934.252 18.0438 930.623 Z" fill="#000000" fill-rule="nonzero" fill-opacity="1" /><path clip-path="url(#clip740)" d="M21.7677 911.303 L39.6235 911.303 L39.6235 903.219 Q39.6235 898.731 37.3 896.28 Q34.9765 893.829 30.6797 893.829 Q26.4147 893.829 24.0912 896.28 Q21.7677 898.731 21.7677 903.219 L21.7677 911.303 M16.4842 917.733 L16.4842 903.219 Q16.4842 895.23 20.1126 891.156 Q23.7092 887.05 30.6797 887.05 Q37.7138 887.05 41.3104 891.156 Q44.907 895.23 44.907 903.219 L44.907 911.303 L64.0042 911.303 L64.0042 917.733 L16.4842 917.733 Z" fill="#000000" fill-rule="nonzero" fill-opacity="1" /><path clip-path="url(#clip740)" d="M41.7242 855.89 Q42.4244 853.821 44.7161 851.879 Q47.0077 849.906 51.0181 847.933 L64.0042 841.408 L64.0042 848.315 L51.8138 854.394 Q47.0395 856.749 45.48 858.977 Q43.9204 861.173 43.9204 864.993 L43.9204 871.995 L64.0042 871.995 L64.0042 878.424 L16.4842 878.424 L16.4842 863.911 Q16.4842 855.763 19.8898 851.752 Q23.2955 847.742 30.1704 847.742 Q34.6582 847.742 37.6183 849.842 Q40.5784 851.911 41.7242 855.89 M21.7677 871.995 L38.6368 871.995 L38.6368 863.911 Q38.6368 859.264 36.5043 856.908 Q34.34 854.521 30.1704 854.521 Q26.0009 854.521 23.9002 856.908 Q21.7677 859.264 21.7677 863.911 L21.7677 871.995 Z" fill="#000000" fill-rule="nonzero" fill-opacity="1" /><path clip-path="url(#clip740)" d="M41.7242 789.877 Q42.4244 787.809 44.7161 785.867 Q47.0077 783.894 51.0181 781.92 L64.0042 775.395 L64.0042 782.302 L51.8138 788.382 Q47.0395 790.737 45.48 792.965 Q43.9204 795.161 43.9204 798.98 L43.9204 805.983 L64.0042 805.983 L64.0042 812.412 L16.4842 812.412 L16.4842 797.898 Q16.4842 789.75 19.8898 785.74 Q23.2955 781.729 30.1704 781.729 Q34.6582 781.729 37.6183 783.83 Q40.5784 785.899 41.7242 789.877 M21.7677 805.983 L38.6368 805.983 L38.6368 797.898 Q38.6368 793.251 36.5043 790.896 Q34.34 788.509 30.1704 788.509 Q26.0009 788.509 23.9002 790.896 Q21.7677 793.251 21.7677 797.898 L21.7677 805.983 Z" fill="#000000" fill-rule="nonzero" fill-opacity="1" /><path clip-path="url(#clip740)" d="M44.7161 739.811 L47.5806 739.811 L47.5806 766.738 Q53.6281 766.356 56.8109 763.11 Q59.9619 759.831 59.9619 754.007 Q59.9619 750.633 59.1344 747.482 Q58.3069 744.299 56.6518 741.18 L62.1899 741.18 Q63.5267 744.331 64.227 747.641 Q64.9272 750.951 64.9272 754.357 Q64.9272 762.887 59.9619 767.884 Q54.9967 772.849 46.5303 772.849 Q37.7774 772.849 32.6531 768.139 Q27.4968 763.396 27.4968 755.375 Q27.4968 748.182 32.1438 744.013 Q36.7589 739.811 44.7161 739.811 M42.9973 745.668 Q38.1912 745.731 35.3266 748.373 Q32.4621 750.983 32.4621 755.312 Q32.4621 760.213 35.2312 763.173 Q38.0002 766.102 43.0292 766.547 L42.9973 745.668 Z" fill="#000000" fill-rule="nonzero" fill-opacity="1" /><path clip-path="url(#clip740)" d="M29.4065 707.473 L34.9447 707.473 Q33.6716 709.956 33.035 712.63 Q32.3984 715.303 32.3984 718.168 Q32.3984 722.528 33.7352 724.724 Q35.072 726.889 37.7456 726.889 Q39.7826 726.889 40.9603 725.329 Q42.1061 723.77 43.1565 719.059 L43.6021 717.054 Q44.9389 710.815 47.3897 708.205 Q49.8086 705.564 54.1691 705.564 Q59.1344 705.564 62.0308 709.51 Q64.9272 713.425 64.9272 720.3 Q64.9272 723.165 64.3543 726.284 Q63.8132 729.371 62.6992 732.809 L56.6518 732.809 Q58.3387 729.562 59.198 726.411 Q60.0256 723.26 60.0256 720.173 Q60.0256 716.035 58.6251 713.807 Q57.1929 711.579 54.6147 711.579 Q52.2276 711.579 50.9545 713.203 Q49.6813 714.794 48.5037 720.237 L48.0262 722.274 Q46.8804 727.716 44.5251 730.135 Q42.138 732.554 38.0002 732.554 Q32.9713 732.554 30.2341 728.989 Q27.4968 725.425 27.4968 718.868 Q27.4968 715.622 27.9743 712.757 Q28.4517 709.892 29.4065 707.473 Z" fill="#000000" fill-rule="nonzero" fill-opacity="1" /><path clip-path="url(#clip740)" d="M58.657 690.572 L77.5631 690.572 L77.5631 696.461 L28.3562 696.461 L28.3562 690.572 L33.7671 690.572 Q30.5842 688.726 29.0564 685.925 Q27.4968 683.093 27.4968 679.178 Q27.4968 672.685 32.6531 668.643 Q37.8093 664.569 46.212 664.569 Q54.6147 664.569 59.771 668.643 Q64.9272 672.685 64.9272 679.178 Q64.9272 683.093 63.3994 685.925 Q61.8398 688.726 58.657 690.572 M46.212 670.648 Q39.7508 670.648 36.0905 673.321 Q32.3984 675.963 32.3984 680.61 Q32.3984 685.257 36.0905 687.931 Q39.7508 690.572 46.212 690.572 Q52.6732 690.572 56.3653 687.931 Q60.0256 685.257 60.0256 680.61 Q60.0256 675.963 56.3653 673.321 Q52.6732 670.648 46.212 670.648 Z" fill="#000000" fill-rule="nonzero" fill-opacity="1" /><path clip-path="url(#clip740)" d="M32.4621 641.047 Q32.4621 645.758 36.1542 648.495 Q39.8145 651.232 46.212 651.232 Q52.6095 651.232 56.3017 648.527 Q59.9619 645.79 59.9619 641.047 Q59.9619 636.368 56.2698 633.631 Q52.5777 630.894 46.212 630.894 Q39.8781 630.894 36.186 633.631 Q32.4621 636.368 32.4621 641.047 M27.4968 641.047 Q27.4968 633.408 32.4621 629.048 Q37.4273 624.687 46.212 624.687 Q54.9649 624.687 59.9619 629.048 Q64.9272 633.408 64.9272 641.047 Q64.9272 648.718 59.9619 653.078 Q54.9649 657.407 46.212 657.407 Q37.4273 657.407 32.4621 653.078 Q27.4968 648.718 27.4968 641.047 Z" fill="#000000" fill-rule="nonzero" fill-opacity="1" /><path clip-path="url(#clip740)" d="M42.4881 585.347 L64.0042 585.347 L64.0042 591.204 L42.679 591.204 Q37.6183 591.204 35.1038 593.177 Q32.5894 595.151 32.5894 599.097 Q32.5894 603.84 35.6131 606.577 Q38.6368 609.314 43.8567 609.314 L64.0042 609.314 L64.0042 615.202 L28.3562 615.202 L28.3562 609.314 L33.8944 609.314 Q30.6797 607.214 29.0883 604.381 Q27.4968 601.516 27.4968 597.792 Q27.4968 591.649 31.3163 588.498 Q35.1038 585.347 42.4881 585.347 Z" fill="#000000" fill-rule="nonzero" fill-opacity="1" /><path clip-path="url(#clip740)" d="M29.4065 550.941 L34.9447 550.941 Q33.6716 553.423 33.035 556.097 Q32.3984 558.77 32.3984 561.635 Q32.3984 565.996 33.7352 568.192 Q35.072 570.356 37.7456 570.356 Q39.7826 570.356 40.9603 568.796 Q42.1061 567.237 43.1565 562.526 L43.6021 560.521 Q44.9389 554.283 47.3897 551.673 Q49.8086 549.031 54.1691 549.031 Q59.1344 549.031 62.0308 552.978 Q64.9272 556.893 64.9272 563.768 Q64.9272 566.632 64.3543 569.751 Q63.8132 572.839 62.6992 576.276 L56.6518 576.276 Q58.3387 573.03 59.198 569.879 Q60.0256 566.728 60.0256 563.64 Q60.0256 559.503 58.6251 557.275 Q57.1929 555.047 54.6147 555.047 Q52.2276 555.047 50.9545 556.67 Q49.6813 558.261 48.5037 563.704 L48.0262 565.741 Q46.8804 571.184 44.5251 573.603 Q42.138 576.022 38.0002 576.022 Q32.9713 576.022 30.2341 572.457 Q27.4968 568.892 27.4968 562.335 Q27.4968 559.089 27.9743 556.224 Q28.4517 553.36 29.4065 550.941 Z" fill="#000000" fill-rule="nonzero" fill-opacity="1" /><path clip-path="url(#clip740)" d="M44.7161 509.213 L47.5806 509.213 L47.5806 536.14 Q53.6281 535.758 56.8109 532.512 Q59.9619 529.234 59.9619 523.409 Q59.9619 520.035 59.1344 516.884 Q58.3069 513.701 56.6518 510.582 L62.1899 510.582 Q63.5267 513.733 64.227 517.043 Q64.9272 520.353 64.9272 523.759 Q64.9272 532.289 59.9619 537.286 Q54.9967 542.251 46.5303 542.251 Q37.7774 542.251 32.6531 537.541 Q27.4968 532.798 27.4968 524.778 Q27.4968 517.584 32.1438 513.415 Q36.7589 509.213 44.7161 509.213 M42.9973 515.07 Q38.1912 515.134 35.3266 517.775 Q32.4621 520.385 32.4621 524.714 Q32.4621 529.616 35.2312 532.576 Q38.0002 535.504 43.0292 535.949 L42.9973 515.07 Z" fill="#000000" fill-rule="nonzero" fill-opacity="1" /><polyline clip-path="url(#clip742)" style="stroke:#009af9; stroke-linecap:round; stroke-linejoin:round; stroke-width:8; stroke-opacity:1; fill:none" points="264.778,1384.24 268.157,1377.68 271.536,1371.32 274.914,1364.78 278.293,1358.72 281.671,1352.67 285.05,1346.64 288.429,1340.56 291.807,1334.47 295.186,1328.72 298.564,1323.32 301.943,1317.44 305.322,1311.73 308.7,1306.25 312.079,1300.76 315.458,1295.44 318.836,1290.02 322.215,1284.74 325.593,1279.7 328.972,1274.47 332.351,1269.74 335.729,1264.9 339.108,1260.25 342.486,1254.94 345.865,1250.35 349.244,1245.59 352.622,1240.7 356.001,1235.95 359.379,1231.56 362.758,1226.99 366.137,1222.43 369.515,1218.19 372.894,1213.92 376.272,1209.4 379.651,1205.02 383.03,1200.74 386.408,1196.48 389.787,1192.5 393.165,1188.54 396.544,1184.5 399.923,1180.12 403.301,1176.16 406.68,1172.49 410.058,1168.51 413.437,1164.68 416.816,1161.15 420.194,1157.68 423.573,1154.12 426.951,1150.47 430.33,1146.81 433.709,1143.41 437.087,1139.78 440.466,1136.12 443.844,1132.65 447.223,1129.62 450.602,1126.01 453.98,1122.46 457.359,1118.92 460.737,1115.48 464.116,1112.16 467.495,1108.73 470.873,1104.76 474.252,1101.49 477.631,1098.06 481.009,1094.58 484.388,1091.23 487.766,1088.1 491.145,1084.48 494.524,1081.26 497.902,1077.91 501.281,1074.95 504.659,1071.96 508.038,1068.92 511.417,1066.08 514.795,1063.11 518.174,1060.13 521.552,1057.11 524.931,1054.22 528.31,1051.07 531.688,1048.11 535.067,1044.73 538.445,1042.16 541.824,1039.41 545.203,1036.6 548.581,1033.67 551.96,1030.49 555.338,1028.04 558.717,1025.48 562.096,1022.83 565.474,1019.98 568.853,1017.13 572.231,1014.35 575.61,1011.29 578.989,1008.48 582.367,1005.87 585.746,1003.31 589.124,1000.87 592.503,998.345 595.882,995.449 599.26,993.022 602.639,990.518 606.017,987.952 609.396,985.339 612.775,983.279 616.153,981.012 619.532,978.606 622.911,976.025 626.289,973.67 629.668,971.042 633.046,968.414 636.425,965.543 639.804,963.029 643.182,960.261 646.561,957.757 649.939,956.022 653.318,954.23 656.697,951.638 660.075,949.645 663.454,947.42 666.832,944.875 670.211,942.716 673.59,940.491 676.968,938.142 680.347,936.128 683.725,933.877 687.104,931.796 690.483,929.54 693.861,927.784 697.24,925.476 700.618,923.571 703.997,921.361 707.376,919.043 710.754,916.688 714.133,914.499 717.511,912.175 720.89,909.842 724.269,907.709 727.647,905.401 731.026,903.16 734.404,900.951 737.783,899.505 741.162,897.383 744.54,895.715 747.919,893.515 751.297,891.533 754.676,889.535 758.055,887.929 761.433,885.683 764.812,883.437 768.19,881.397 771.569,879.502 774.948,883.277 778.326,886.695 781.705,890.164 785.084,893.567 788.462,896.892 791.841,900.026 795.219,903.212 798.598,906.186 801.977,909.062 805.355,911.85 808.734,914.545 812.112,917.101 815.491,919.957 818.87,922.518 822.248,925.063 825.627,927.423 829.005,929.844 832.384,932.255 835.763,934.393 839.141,936.763 842.52,938.761 845.898,940.956 849.277,942.969 852.656,944.993 856.034,947.043 859.413,948.923 862.791,950.828 866.17,952.805 869.549,954.483 872.927,956.409 876.306,958.139 879.684,959.967 883.063,961.593 886.442,963.421 889.82,965.202 893.199,966.787 896.577,968.471 899.956,970.159 903.335,971.61 906.713,973.009 910.092,974.579 913.47,976.061 916.849,977.661 920.228,979.143 923.606,980.506 926.985,981.952 930.363,983.506 933.742,984.905 937.121,986.248 940.499,987.58 943.878,988.953 947.257,990.296 950.635,991.834 954.014,993.198 957.392,994.447 960.771,995.691 964.15,996.946 967.528,998.154 970.907,999.461 974.285,1000.55 977.664,1001.78 981.043,1003.05 984.421,1004.35 987.8,1005.56 991.178,1006.63 994.557,1007.81 997.936,1008.88 1001.31,1010.09 1004.69,1011.3 1008.07,1012.44 1011.45,1013.62 1014.83,1014.68 1018.21,1015.76 1021.59,1017.01 1024.96,1018.1 1028.34,1019.35 1031.72,1020.49 1035.1,1021.55 1038.48,1022.55 1041.86,1023.72 1045.24,1024.78 1048.61,1025.93 1051.99,1026.86 1055.37,1027.96 1058.75,1029 1062.13,1030.17 1065.51,1031.26 1068.89,1032.21 1072.26,1033.16 1075.64,1034.14 1079.02,1035.02 1082.4,1036 1085.78,1037.04 1089.16,1037.99 1092.54,1039.04 1095.92,1040.01 1099.29,1041.01 1102.67,1041.9 1106.05,1042.94 1109.43,1043.82 1112.81,1044.76 1116.19,1045.69 1119.57,1046.49 1122.94,1047.4 1126.32,1048.41 1129.7,1049.34 1133.08,1050.31 1136.46,1051.29 1139.84,1052.14 1143.22,1053.03 1146.59,1053.94 1149.97,1054.69 1153.35,1055.52 1156.73,1056.48 1160.11,1057.41 1163.49,1058.48 1166.87,1059.31 1170.24,1060.27 1173.62,1061.12 1177,1062.08 1180.38,1062.9 1183.76,1063.76 1187.14,1064.59 1190.52,1065.4 1193.89,1066.3 1197.27,1067.22 1200.65,1068.07 1204.03,1068.88 1207.41,1069.66 1210.79,1070.4 1214.17,1071.37 1217.54,1072.14 1220.92,1072.98 1224.3,1073.9 1227.68,1074.73 1231.06,1075.67 1234.44,1076.46 1237.82,1077.31 1241.2,1078.16 1244.57,1078.97 1247.95,1079.77 1251.33,1080.63 1254.71,1081.56 1258.09,1082.38 1261.47,1083.11 1264.85,1083.87 1268.22,1084.73 1271.6,1085.56 1274.98,1086.46 1278.36,1087.24 1281.74,1088.06 1285.12,1088.85 1288.5,1089.62 1291.87,1090.28 1295.25,1091.06 1298.63,1091.75 1302.01,1092.37 1305.39,1093.04 1308.77,1093.77 1312.15,1094.56 1315.52,1095.32 1318.9,1096.07 1322.28,1096.83 1325.66,1097.6 1329.04,1098.42 1332.42,1099.18 1335.8,1099.9 1339.17,1100.7 1342.55,1101.47 1345.93,1102.15 1349.31,1102.79 1352.69,1103.43 1356.07,1103.94 1359.45,1104.63 1362.82,1105.32 1366.2,1106.1 1369.58,1106.75 1372.96,1107.45 1376.34,1108.19 1379.72,1108.89 1383.1,1109.58 1386.48,1110.4 1389.85,1111.06 1393.23,1111.78 1396.61,1112.47 1399.99,1113.18 1403.37,1113.88 1406.75,1114.53 1410.13,1115.27 1413.5,1116.05 1416.88,1116.68 1420.26,1117.29 1423.64,1117.97 1427.02,1118.53 1430.4,1119.18 1433.78,1119.86 1437.15,1120.55 1440.53,1121.11 1443.91,1121.77 1447.29,1122.46 1450.67,1123.15 1454.05,1123.88 1457.43,1124.59 1460.8,1125.35 1464.18,1125.97 1467.56,1126.72 1470.94,1127.37 1474.32,1128.02 1477.7,1128.66 1481.08,1129.31 1484.45,1129.97 1487.83,1130.53 1491.21,1131.22 1494.59,1131.85 1497.97,1132.54 1501.35,1133.18 1504.73,1133.86 1508.1,1134.58 1511.48,1135.25 1514.86,1135.83 1518.24,1136.47 1521.62,1137.29 1525,1137.91 1528.38,1138.58 1531.76,1139.25 1535.13,1139.94 1538.51,1140.6 1541.89,1141.24 1545.27,1141.82 1548.65,1142.42 1552.03,1143.08 1555.41,1143.75 1558.78,1144.4 1562.16,1144.99 1565.54,1145.52 1568.92,1146.12 1572.3,1146.76 1575.68,1147.3 1579.06,1147.99 1582.43,1148.62 1585.81,1149.25 1589.19,1149.76 1592.57,1150.42 1595.95,1151.09 1599.33,1151.64 1602.71,1152.22 1606.08,1152.75 1609.46,1153.31 1612.84,1153.97 1616.22,1154.47 1619.6,1155.1 1622.98,1155.51 1626.36,1155.98 1629.73,1156.46 1633.11,1157.03 1636.49,1157.56 1639.87,1158.13 1643.25,1158.81 1646.63,1159.4 1650.01,1159.95 1653.38,1160.5 1656.76,1161.14 1660.14,1161.75 1663.52,1162.34 1666.9,1162.85 1670.28,1163.39 1673.66,1163.89 1677.04,1164.41 1680.41,1164.92 1683.79,1165.44 1687.17,1165.87 1690.55,1166.36 1693.93,1166.93 1697.31,1167.45 1700.69,1168.07 1704.06,1168.6 1707.44,1169.2 1710.82,1169.72 1714.2,1170.24 1717.58,1170.79 1720.96,1171.33 1724.34,1171.84 1727.71,1172.34 1731.09,1172.88 1734.47,1173.34 1737.85,1173.85 1741.23,1174.26 1744.61,1174.71 1747.99,1175.35 1751.36,1175.95 1754.74,1176.48 1758.12,1177.02 1761.5,1177.54 1764.88,1178.02 1768.26,1178.49 1771.64,1179 1775.01,1179.41 1778.39,1179.87 1781.77,1180.3 1785.15,1180.82 1788.53,1181.37 1791.91,1181.88 1795.29,1182.46 1798.66,1182.86 1802.04,1183.34 1805.42,1183.75 1808.8,1184.34 1812.18,1184.78 1815.56,1185.26 1818.94,1185.76 1822.32,1186.32 1825.69,1186.83 1829.07,1187.35 1832.45,1187.84 1835.83,1188.28 1839.21,1188.74 1842.59,1189.17 1845.97,1189.58 1849.34,1190.1 1852.72,1190.47 1856.1,1191.02 1859.48,1191.47 1862.86,1191.98 1866.24,1192.56 1869.62,1193 1872.99,1193.47 1876.37,1193.92 1879.75,1194.34 1883.13,1194.85 1886.51,1195.38 1889.89,1195.93 1893.27,1196.36 1896.64,1196.82 1900.02,1197.35 1903.4,1197.81 1906.78,1198.23 1910.16,1198.69 1913.54,1199.13 1916.92,1199.51 1920.29,1199.92 1923.67,1200.32 1927.05,1200.77 1930.43,1201.17 1933.81,1201.64 1937.19,1202.08 1940.57,1202.56 1943.94,1203.12 1947.32,1203.53 1950.7,1203.93 1954.08,1204.34 1957.46,1204.81 1960.84,1205.2 1964.22,1205.65 1967.6,1206.04 1970.97,1206.52 1974.35,1206.96 1977.73,1207.37 1981.11,1207.76 1984.49,1208.17 1987.87,1208.6 1991.25,1208.99 1994.62,1209.38 1998,1209.89 2001.38,1210.33 2004.76,1210.73 2008.14,1211.06 2011.52,1211.44 2014.9,1211.9 2018.27,1212.33 2021.65,1212.75 2025.03,1213.16 2028.41,1213.48 2031.79,1213.89 2035.17,1214.22 2038.55,1214.67 2041.92,1215.2 2045.3,1215.62 2048.68,1216 2052.06,1216.44 2055.44,1216.88 2058.82,1217.26 2062.2,1217.65 2065.57,1218.08 2068.95,1218.44 2072.33,1218.87 2075.71,1219.29 2079.09,1219.65 2082.47,1220.01 2085.85,1220.41 2089.22,1220.82 2092.6,1221.31 2095.98,1221.67 2099.36,1222.06 2102.74,1222.41 2106.12,1222.82 2109.5,1223.27 2112.88,1223.7 2116.25,1224.15 2119.63,1224.54 2123.01,1224.92 2126.39,1225.29 2129.77,1225.65 2133.15,1226.01 2136.53,1226.35 2139.9,1226.67 2143.28,1226.98 2146.66,1227.31 2150.04,1227.74 2153.42,1228.14 2156.8,1228.53 2160.18,1228.88 2163.55,1229.25 2166.93,1229.65 2170.31,1230.08 2173.69,1230.51 2177.07,1230.91 2180.45,1231.32 2183.83,1231.73 2187.2,1232.19 2190.58,1232.53 2193.96,1232.86 2197.34,1233.25 2200.72,1233.62 2204.1,1233.89 2207.48,1234.23 2210.85,1234.63 2214.23,1234.97 2217.61,1235.32 2220.99,1235.73 2224.37,1236.04 2227.75,1236.42 2231.13,1236.73 2234.5,1237.04 2237.88,1237.45 2241.26,1237.77 2244.64,1238.1 2248.02,1238.39 2251.4,1238.69 2254.78,1238.98 2258.15,1239.31 2261.53,1239.69 2264.91,1240.07 2268.29,1240.41 2271.67,1240.75 2275.05,1241.09 2278.43,1241.37 2281.81,1241.71 2285.18,1242.02 2288.56,1242.35 2291.94,1242.66 "/>
<polyline clip-path="url(#clip742)" style="stroke:#e26f46; stroke-linecap:round; stroke-linejoin:round; stroke-width:8; stroke-opacity:1; fill:none" points="264.778,1384.24 268.157,1357.25 271.536,1331.3 274.914,1305.93 278.293,1281.22 281.671,1257.16 285.05,1233.75 288.429,1210.93 291.807,1188.66 295.186,1167.32 298.564,1145.88 301.943,1124.56 305.322,1103.84 308.7,1083.98 312.079,1063.95 315.458,1045.03 318.836,1026.54 322.215,1008.23 325.593,989.304 328.972,971.187 332.351,953.652 335.729,937.166 339.108,920.235 342.486,903.976 345.865,887.805 349.244,872.031 352.622,857.078 356.001,841.816 359.379,826.501 362.758,811.77 366.137,796.89 369.515,782.675 372.894,768.513 376.272,755.062 379.651,741.658 383.03,728.693 386.408,716.043 389.787,703.543 393.165,691.198 396.544,678.832 399.923,667.478 403.301,655.979 406.68,644.573 410.058,633.978 413.437,623.295 416.816,612.592 420.194,602.224 423.573,591.65 426.951,580.879 430.33,570.274 433.709,560.768 437.087,550.762 440.466,541.488 443.844,532.231 447.223,523.453 450.602,514.309 453.98,505.118 457.359,496.475 460.737,487.129 464.116,478.466 467.495,469.874 470.873,461.876 474.252,453.904 477.631,446.314 481.009,438.91 484.388,431.232 487.766,424.452 491.145,416.775 494.524,409.562 497.902,402.183 501.281,395.28 504.659,387.974 508.038,381.019 511.417,374.374 514.795,368.23 518.174,361.342 521.552,355.466 524.931,349.156 528.31,343.327 531.688,337.327 535.067,331.353 538.445,325.194 541.824,320.108 545.203,314.232 548.581,309.043 551.96,303.962 555.338,298.443 558.717,294.23 562.096,288.736 565.474,283.949 568.853,278.683 572.231,273.411 575.61,268.449 578.989,263.549 582.367,259.63 585.746,255.242 589.124,251.266 592.503,247.528 595.882,242.917 599.26,238.523 602.639,234.114 606.017,230.091 609.396,226.384 612.775,222.548 616.153,218.056 619.532,213.884 622.911,210.027 626.289,206.051 629.668,202.065 633.046,198.043 636.425,194.356 639.804,190.52 643.182,187.174 646.561,183.338 649.939,179.801 653.318,176.326 656.697,172.536 660.075,168.994 663.454,165.938 666.832,162.261 670.211,159.262 673.59,156.814 676.968,153.525 680.347,150.789 683.725,147.969 687.104,145.114 690.483,142.512 693.861,139.739 697.24,136.925 700.618,133.466 703.997,130.662 707.376,128.08 710.754,125.53 714.133,122.158 717.511,120.403 720.89,118.022 724.269,115.461 727.647,113.556 731.026,112.018 734.404,109.818 737.783,107.35 741.162,105.078 744.54,103.106 747.919,100.875 751.297,99.0732 754.676,96.791 758.055,94.7722 761.433,92.4849 764.812,90.3989 768.19,88.1426 771.569,86.1857 774.948,99.2436 778.326,112.012 781.705,124.007 785.084,135.805 788.462,147.272 791.841,158.275 795.219,169.144 798.598,179.786 801.977,189.627 805.355,199.597 808.734,209.449 812.112,218.815 815.491,227.809 818.87,236.933 822.248,245.385 825.627,254.002 829.005,261.871 832.384,269.874 835.763,277.759 839.141,285.235 842.52,292.52 845.898,299.351 849.277,305.935 852.656,312.44 856.034,318.967 859.413,324.848 862.791,331.348 866.17,337.317 869.549,343.451 872.927,349.291 876.306,355.136 879.684,360.81 883.063,366.34 886.442,371.395 889.82,376.413 893.199,381.685 896.577,386.688 899.956,391.387 903.335,396.178 906.713,400.944 910.092,405.57 913.47,410.011 916.849,414.41 920.228,418.871 923.606,423.038 926.985,427.432 930.363,431.552 933.742,435.646 937.121,439.762 940.499,443.928 943.878,447.94 947.257,451.906 950.635,455.685 954.014,459.563 957.392,463.415 960.771,466.926 964.15,470.447 967.528,473.948 970.907,477.309 974.285,480.82 977.664,484.093 981.043,487.45 984.421,490.754 987.8,493.991 991.178,497.27 994.557,500.626 997.936,503.915 1001.31,507.039 1004.69,510.091 1008.07,513.178 1011.45,516.281 1014.83,519.075 1018.21,522.126 1021.59,525.167 1024.96,528.147 1028.34,531.239 1031.72,533.94 1035.1,536.769 1038.48,539.759 1041.86,542.8 1045.24,545.702 1048.61,548.562 1051.99,551.459 1055.37,554.304 1058.75,557.18 1062.13,560.035 1065.51,562.802 1068.89,565.529 1072.26,568.084 1075.64,570.527 1079.02,573.341 1082.4,575.897 1085.78,578.587 1089.16,581.049 1092.54,583.688 1095.92,585.986 1099.29,588.531 1102.67,591.092 1106.05,593.607 1109.43,596.09 1112.81,598.615 1116.19,601.093 1119.57,603.448 1122.94,605.916 1126.32,608.244 1129.7,610.651 1133.08,613.139 1136.46,615.705 1139.84,618.05 1143.22,620.342 1146.59,622.748 1149.97,625.17 1153.35,627.612 1156.73,629.935 1160.11,632.259 1163.49,634.526 1166.87,636.88 1170.24,638.878 1173.62,641.016 1177,643.2 1180.38,645.353 1183.76,647.702 1187.14,649.984 1190.52,652.344 1193.89,654.461 1197.27,656.573 1200.65,658.798 1204.03,661.013 1207.41,663.125 1210.79,665.133 1214.17,667.163 1217.54,669.352 1220.92,671.304 1224.3,673.178 1227.68,675.099 1231.06,677.086 1234.44,679.203 1237.82,681.403 1241.2,683.313 1244.57,685.322 1247.95,687.274 1251.33,689.272 1254.71,691.296 1258.09,693.278 1261.47,695.323 1264.85,697.259 1268.22,699.263 1271.6,701.178 1274.98,703.466 1278.36,705.443 1281.74,707.271 1285.12,709.383 1288.5,711.247 1291.87,713.348 1295.25,715.176 1298.63,717.21 1302.01,719.157 1305.39,721.093 1308.77,723.091 1312.15,724.785 1315.52,726.731 1318.9,728.6 1322.28,730.537 1325.66,732.566 1329.04,734.275 1332.42,736.128 1335.8,737.946 1339.17,739.8 1342.55,741.602 1345.93,743.419 1349.31,745.283 1352.69,746.997 1356.07,748.964 1359.45,750.813 1362.82,752.506 1366.2,754.288 1369.58,756.054 1372.96,757.871 1376.34,759.492 1379.72,761.196 1383.1,762.962 1386.48,764.754 1389.85,766.483 1393.23,768.115 1396.61,769.876 1399.99,771.476 1403.37,773.206 1406.75,774.755 1410.13,776.588 1413.5,778.256 1416.88,779.939 1420.26,781.601 1423.64,783.362 1427.02,784.989 1430.4,786.744 1433.78,788.401 1437.15,790.172 1440.53,791.928 1443.91,793.529 1447.29,795.284 1450.67,796.947 1454.05,798.692 1457.43,800.551 1460.8,802.136 1464.18,803.824 1467.56,805.409 1470.94,806.984 1474.32,808.538 1477.7,810.123 1481.08,811.724 1484.45,813.226 1487.83,814.967 1491.21,816.443 1494.59,817.987 1497.97,819.391 1501.35,820.93 1504.73,822.593 1508.1,824.167 1511.48,825.778 1514.86,827.24 1518.24,828.814 1521.62,830.296 1525,831.892 1528.38,833.327 1531.76,834.985 1535.13,836.389 1538.51,838.144 1541.89,839.518 1545.27,841.02 1548.65,842.616 1552.03,843.974 1555.41,845.368 1558.78,846.845 1562.16,848.378 1565.54,849.674 1568.92,851.047 1572.3,852.473 1575.68,853.851 1579.06,855.245 1582.43,856.706 1585.81,858.348 1589.19,859.541 1592.57,861.018 1595.95,862.35 1599.33,863.827 1602.71,865.355 1606.08,866.883 1609.46,868.37 1612.84,869.759 1616.22,871.04 1619.6,872.46 1622.98,873.745 1626.36,875.181 1629.73,876.492 1633.11,877.716 1636.49,879.012 1639.87,880.38 1643.25,881.588 1646.63,882.946 1650.01,884.356 1653.38,885.714 1656.76,887.02 1660.14,888.331 1663.52,889.638 1666.9,891.011 1670.28,892.416 1673.66,893.712 1677.04,894.863 1680.41,896.128 1683.79,897.414 1687.17,898.699 1690.55,900.052 1693.93,901.224 1697.31,902.386 1700.69,903.873 1704.06,905.21 1707.44,906.377 1710.82,907.776 1714.2,909.248 1717.58,910.534 1720.96,911.892 1724.34,913.218 1727.71,914.54 1731.09,915.712 1734.47,916.957 1737.85,918.289 1741.23,919.569 1744.61,920.757 1747.99,922.068 1751.36,923.483 1754.74,924.769 1758.12,926.127 1761.5,927.325 1764.88,928.59 1768.26,929.932 1771.64,931.233 1775.01,932.39 1778.39,933.613 1781.77,934.842 1785.15,936.087 1788.53,937.13 1791.91,938.333 1795.29,939.5 1798.66,940.651 1802.04,941.756 1805.42,943.005 1808.8,944.095 1812.18,945.282 1815.56,946.351 1818.94,947.379 1822.32,948.597 1825.69,949.676 1829.07,950.817 1832.45,951.969 1835.83,953.234 1839.21,954.354 1842.59,955.552 1845.97,956.58 1849.34,957.809 1852.72,958.975 1856.1,960.086 1859.48,961.216 1862.86,962.29 1866.24,963.287 1869.62,964.423 1872.99,965.476 1876.37,966.684 1879.75,967.774 1883.13,968.915 1886.51,969.875 1889.89,970.923 1893.27,971.966 1896.64,972.906 1900.02,974.032 1903.4,975.111 1906.78,976.216 1910.16,977.321 1913.54,978.4 1916.92,979.396 1920.29,980.455 1923.67,981.379 1927.05,982.339 1930.43,983.455 1933.81,984.554 1937.19,985.613 1940.57,986.521 1943.94,987.585 1947.32,988.638 1950.7,989.805 1954.08,990.905 1957.46,991.881 1960.84,992.847 1964.22,993.926 1967.6,994.943 1970.97,995.841 1974.35,996.771 1977.73,997.907 1981.11,998.96 1984.49,999.992 1987.87,1000.98 1991.25,1002.02 1994.62,1003.02 1998,1004.08 2001.38,1005.12 2004.76,1006.04 2008.14,1007.08 2011.52,1008.1 2014.9,1009 2018.27,1009.99 2021.65,1010.96 2025.03,1011.96 2028.41,1012.86 2031.79,1013.97 2035.17,1014.95 2038.55,1015.91 2041.92,1016.82 2045.3,1017.91 2048.68,1018.93 2052.06,1019.83 2055.44,1020.81 2058.82,1021.76 2062.2,1022.81 2065.57,1023.72 2068.95,1024.57 2072.33,1025.46 2075.71,1026.42 2079.09,1027.41 2082.47,1028.3 2085.85,1029.18 2089.22,1030.13 2092.6,1030.96 2095.98,1031.79 2099.36,1032.61 2102.74,1033.45 2106.12,1034.43 2109.5,1035.28 2112.88,1036.13 2116.25,1036.96 2119.63,1037.89 2123.01,1038.78 2126.39,1039.71 2129.77,1040.61 2133.15,1041.57 2136.53,1042.58 2139.9,1043.44 2143.28,1044.28 2146.66,1045.16 2150.04,1046.03 2153.42,1046.85 2156.8,1047.69 2160.18,1048.44 2163.55,1049.18 2166.93,1050.02 2170.31,1050.83 2173.69,1051.67 2177.07,1052.44 2180.45,1053.23 2183.83,1053.97 2187.2,1054.9 2190.58,1055.76 2193.96,1056.58 2197.34,1057.36 2200.72,1058.21 2204.1,1059.09 2207.48,1059.9 2210.85,1060.61 2214.23,1061.52 2217.61,1062.29 2220.99,1063.1 2224.37,1063.91 2227.75,1064.66 2231.13,1065.38 2234.5,1066.13 2237.88,1066.87 2241.26,1067.67 2244.64,1068.55 2248.02,1069.4 2251.4,1070.1 2254.78,1071.04 2258.15,1071.82 2261.53,1072.59 2264.91,1073.34 2268.29,1074.09 2271.67,1074.95 2275.05,1075.74 2278.43,1076.59 2281.81,1077.38 2285.18,1078.03 2288.56,1078.87 2291.94,1079.56 "/>
<path clip-path="url(#clip740)" d="M1470.12 248.629 L2281.13 248.629 L2281.13 93.1086 L1470.12 93.1086  Z" fill="#ffffff" fill-rule="evenodd" fill-opacity="1"/>
<polyline clip-path="url(#clip740)" style="stroke:#000000; stroke-linecap:round; stroke-linejoin:round; stroke-width:4; stroke-opacity:1; fill:none" points="1470.12,248.629 2281.13,248.629 2281.13,93.1086 1470.12,93.1086 1470.12,248.629 "/>
<polyline clip-path="url(#clip740)" style="stroke:#009af9; stroke-linecap:round; stroke-linejoin:round; stroke-width:8; stroke-opacity:1; fill:none" points="1493.99,144.949 1637.25,144.949 "/>
<path clip-path="url(#clip740)" d="M1661.12 126.21 L1670.94 126.21 L1670.94 129.52 L1665.38 129.52 L1665.38 165.168 L1670.94 165.168 L1670.94 168.479 L1661.12 168.479 L1661.12 126.21 Z" fill="#000000" fill-rule="nonzero" fill-opacity="1" /><path clip-path="url(#clip740)" d="M1691.75 132.275 L1685.41 149.474 L1698.11 149.474 L1691.75 132.275 M1689.11 127.669 L1694.41 127.669 L1707.58 162.229 L1702.72 162.229 L1699.57 153.363 L1683.99 153.363 L1680.85 162.229 L1675.91 162.229 L1689.11 127.669 Z" fill="#000000" fill-rule="nonzero" fill-opacity="1" /><path clip-path="url(#clip740)" d="M1731.05 149.289 Q1731.05 144.59 1729.11 141.928 Q1727.19 139.243 1723.81 139.243 Q1720.43 139.243 1718.48 141.928 Q1716.56 144.59 1716.56 149.289 Q1716.56 153.988 1718.48 156.673 Q1720.43 159.335 1723.81 159.335 Q1727.19 159.335 1729.11 156.673 Q1731.05 153.988 1731.05 149.289 M1716.56 140.238 Q1717.91 137.923 1719.94 136.812 Q1722 135.678 1724.85 135.678 Q1729.57 135.678 1732.51 139.428 Q1735.47 143.178 1735.47 149.289 Q1735.47 155.4 1732.51 159.15 Q1729.57 162.9 1724.85 162.9 Q1722 162.9 1719.94 161.789 Q1717.91 160.655 1716.56 158.34 L1716.56 162.229 L1712.28 162.229 L1712.28 126.21 L1716.56 126.21 L1716.56 140.238 Z" fill="#000000" fill-rule="nonzero" fill-opacity="1" /><path clip-path="url(#clip740)" d="M1752.49 126.21 L1752.49 168.479 L1742.67 168.479 L1742.67 165.168 L1748.21 165.168 L1748.21 129.52 L1742.67 129.52 L1742.67 126.21 L1752.49 126.21 Z" fill="#000000" fill-rule="nonzero" fill-opacity="1" /><path clip-path="url(#clip740)" d="M1776.65 140.701 L1806.33 140.701 L1806.33 144.59 L1776.65 144.59 L1776.65 140.701 M1776.65 150.145 L1806.33 150.145 L1806.33 154.081 L1776.65 154.081 L1776.65 150.145 Z" fill="#000000" fill-rule="nonzero" fill-opacity="1" /><path clip-path="url(#clip740)" d="M1835.52 158.293 L1851.84 158.293 L1851.84 162.229 L1829.9 162.229 L1829.9 158.293 Q1832.56 155.539 1837.14 150.909 Q1841.75 146.256 1842.93 144.914 Q1845.17 142.391 1846.05 140.655 Q1846.96 138.895 1846.96 137.206 Q1846.96 134.451 1845.01 132.715 Q1843.09 130.979 1839.99 130.979 Q1837.79 130.979 1835.33 131.743 Q1832.9 132.507 1830.13 134.057 L1830.13 129.335 Q1832.95 128.201 1835.4 127.622 Q1837.86 127.044 1839.9 127.044 Q1845.27 127.044 1848.46 129.729 Q1851.65 132.414 1851.65 136.905 Q1851.65 139.034 1850.84 140.956 Q1850.06 142.854 1847.95 145.446 Q1847.37 146.118 1844.27 149.335 Q1841.17 152.53 1835.52 158.293 Z" fill="#000000" fill-rule="nonzero" fill-opacity="1" /><path clip-path="url(#clip740)" d="M1861.7 127.669 L1880.06 127.669 L1880.06 131.604 L1865.98 131.604 L1865.98 140.076 Q1867 139.729 1868.02 139.567 Q1869.04 139.382 1870.06 139.382 Q1875.84 139.382 1879.22 142.553 Q1882.6 145.724 1882.6 151.141 Q1882.6 156.719 1879.13 159.821 Q1875.66 162.9 1869.34 162.9 Q1867.16 162.9 1864.9 162.53 Q1862.65 162.159 1860.24 161.418 L1860.24 156.719 Q1862.33 157.854 1864.55 158.409 Q1866.77 158.965 1869.25 158.965 Q1873.25 158.965 1875.59 156.858 Q1877.93 154.752 1877.93 151.141 Q1877.93 147.53 1875.59 145.423 Q1873.25 143.317 1869.25 143.317 Q1867.37 143.317 1865.5 143.733 Q1863.65 144.15 1861.7 145.03 L1861.7 127.669 Z" fill="#000000" fill-rule="nonzero" fill-opacity="1" /><path clip-path="url(#clip740)" d="M1891.82 156.349 L1896.7 156.349 L1896.7 162.229 L1891.82 162.229 L1891.82 156.349 Z" fill="#000000" fill-rule="nonzero" fill-opacity="1" /><path clip-path="url(#clip740)" d="M1916.89 130.747 Q1913.27 130.747 1911.45 134.312 Q1909.64 137.854 1909.64 144.983 Q1909.64 152.09 1911.45 155.655 Q1913.27 159.196 1916.89 159.196 Q1920.52 159.196 1922.33 155.655 Q1924.15 152.09 1924.15 144.983 Q1924.15 137.854 1922.33 134.312 Q1920.52 130.747 1916.89 130.747 M1916.89 127.044 Q1922.7 127.044 1925.75 131.65 Q1928.83 136.233 1928.83 144.983 Q1928.83 153.71 1925.75 158.317 Q1922.7 162.9 1916.89 162.9 Q1911.08 162.9 1908 158.317 Q1904.94 153.71 1904.94 144.983 Q1904.94 136.233 1908 131.65 Q1911.08 127.044 1916.89 127.044 Z" fill="#000000" fill-rule="nonzero" fill-opacity="1" /><path clip-path="url(#clip740)" d="M1961.75 126.257 Q1958.64 131.581 1957.14 136.789 Q1955.64 141.997 1955.64 147.344 Q1955.64 152.692 1957.14 157.946 Q1958.67 163.178 1961.75 168.479 L1958.04 168.479 Q1954.57 163.039 1952.83 157.784 Q1951.12 152.53 1951.12 147.344 Q1951.12 142.182 1952.83 136.951 Q1954.55 131.72 1958.04 126.257 L1961.75 126.257 Z" fill="#000000" fill-rule="nonzero" fill-opacity="1" /><path clip-path="url(#clip740)" d="M1986.54 137.067 L1986.54 141.094 Q1984.73 140.169 1982.79 139.706 Q1980.84 139.243 1978.76 139.243 Q1975.59 139.243 1973.99 140.215 Q1972.42 141.187 1972.42 143.131 Q1972.42 144.613 1973.55 145.469 Q1974.69 146.303 1978.11 147.067 L1979.57 147.391 Q1984.11 148.363 1986.01 150.145 Q1987.93 151.905 1987.93 155.076 Q1987.93 158.687 1985.06 160.793 Q1982.21 162.9 1977.21 162.9 Q1975.13 162.9 1972.86 162.483 Q1970.61 162.09 1968.11 161.28 L1968.11 156.881 Q1970.47 158.108 1972.76 158.733 Q1975.06 159.335 1977.3 159.335 Q1980.31 159.335 1981.93 158.317 Q1983.55 157.275 1983.55 155.4 Q1983.55 153.664 1982.37 152.738 Q1981.21 151.812 1977.26 150.956 L1975.77 150.608 Q1971.82 149.775 1970.06 148.062 Q1968.3 146.326 1968.3 143.317 Q1968.3 139.659 1970.89 137.669 Q1973.48 135.678 1978.25 135.678 Q1980.61 135.678 1982.7 136.025 Q1984.78 136.372 1986.54 137.067 Z" fill="#000000" fill-rule="nonzero" fill-opacity="1" /><path clip-path="url(#clip740)" d="M1994.71 136.303 L1998.97 136.303 L1998.97 162.229 L1994.71 162.229 L1994.71 136.303 M1994.71 126.21 L1998.97 126.21 L1998.97 131.604 L1994.71 131.604 L1994.71 126.21 Z" fill="#000000" fill-rule="nonzero" fill-opacity="1" /><path clip-path="url(#clip740)" d="M2028.07 141.28 Q2029.66 138.409 2031.88 137.044 Q2034.11 135.678 2037.12 135.678 Q2041.17 135.678 2043.37 138.525 Q2045.57 141.349 2045.57 146.581 L2045.57 162.229 L2041.28 162.229 L2041.28 146.719 Q2041.28 142.993 2039.96 141.187 Q2038.64 139.382 2035.94 139.382 Q2032.63 139.382 2030.7 141.581 Q2028.78 143.78 2028.78 147.576 L2028.78 162.229 L2024.5 162.229 L2024.5 146.719 Q2024.5 142.969 2023.18 141.187 Q2021.86 139.382 2019.11 139.382 Q2015.84 139.382 2013.92 141.604 Q2012 143.803 2012 147.576 L2012 162.229 L2007.72 162.229 L2007.72 136.303 L2012 136.303 L2012 140.331 Q2013.46 137.946 2015.5 136.812 Q2017.53 135.678 2020.33 135.678 Q2023.16 135.678 2025.13 137.113 Q2027.12 138.548 2028.07 141.28 Z" fill="#000000" fill-rule="nonzero" fill-opacity="1" /><path clip-path="url(#clip740)" d="M2053.62 151.997 L2053.62 136.303 L2057.88 136.303 L2057.88 151.835 Q2057.88 155.516 2059.32 157.368 Q2060.75 159.196 2063.62 159.196 Q2067.07 159.196 2069.06 156.997 Q2071.07 154.798 2071.07 151.002 L2071.07 136.303 L2075.33 136.303 L2075.33 162.229 L2071.07 162.229 L2071.07 158.247 Q2069.52 160.608 2067.46 161.766 Q2065.43 162.9 2062.72 162.9 Q2058.25 162.9 2055.94 160.122 Q2053.62 157.344 2053.62 151.997 M2064.34 135.678 L2064.34 135.678 Z" fill="#000000" fill-rule="nonzero" fill-opacity="1" /><path clip-path="url(#clip740)" d="M2084.11 126.21 L2088.37 126.21 L2088.37 162.229 L2084.11 162.229 L2084.11 126.21 Z" fill="#000000" fill-rule="nonzero" fill-opacity="1" /><path clip-path="url(#clip740)" d="M2109.06 149.196 Q2103.9 149.196 2101.91 150.377 Q2099.92 151.557 2099.92 154.405 Q2099.92 156.673 2101.4 158.016 Q2102.9 159.335 2105.47 159.335 Q2109.01 159.335 2111.14 156.835 Q2113.3 154.312 2113.3 150.145 L2113.3 149.196 L2109.06 149.196 M2117.56 147.437 L2117.56 162.229 L2113.3 162.229 L2113.3 158.293 Q2111.84 160.655 2109.66 161.789 Q2107.49 162.9 2104.34 162.9 Q2100.36 162.9 2098 160.678 Q2095.66 158.432 2095.66 154.682 Q2095.66 150.307 2098.57 148.085 Q2101.51 145.863 2107.32 145.863 L2113.3 145.863 L2113.3 145.446 Q2113.3 142.507 2111.35 140.909 Q2109.43 139.289 2105.94 139.289 Q2103.71 139.289 2101.61 139.821 Q2099.5 140.354 2097.56 141.419 L2097.56 137.483 Q2099.89 136.581 2102.09 136.141 Q2104.29 135.678 2106.38 135.678 Q2112 135.678 2114.78 138.594 Q2117.56 141.511 2117.56 147.437 Z" fill="#000000" fill-rule="nonzero" fill-opacity="1" /><path clip-path="url(#clip740)" d="M2130.54 128.942 L2130.54 136.303 L2139.31 136.303 L2139.31 139.613 L2130.54 139.613 L2130.54 153.687 Q2130.54 156.858 2131.4 157.761 Q2132.28 158.664 2134.94 158.664 L2139.31 158.664 L2139.31 162.229 L2134.94 162.229 Q2130.01 162.229 2128.13 160.4 Q2126.26 158.548 2126.26 153.687 L2126.26 139.613 L2123.13 139.613 L2123.13 136.303 L2126.26 136.303 L2126.26 128.942 L2130.54 128.942 Z" fill="#000000" fill-rule="nonzero" fill-opacity="1" /><path clip-path="url(#clip740)" d="M2144.92 136.303 L2149.18 136.303 L2149.18 162.229 L2144.92 162.229 L2144.92 136.303 M2144.92 126.21 L2149.18 126.21 L2149.18 131.604 L2144.92 131.604 L2144.92 126.21 Z" fill="#000000" fill-rule="nonzero" fill-opacity="1" /><path clip-path="url(#clip740)" d="M2168.13 139.289 Q2164.71 139.289 2162.72 141.974 Q2160.73 144.636 2160.73 149.289 Q2160.73 153.942 2162.69 156.627 Q2164.69 159.289 2168.13 159.289 Q2171.54 159.289 2173.53 156.604 Q2175.52 153.918 2175.52 149.289 Q2175.52 144.682 2173.53 141.997 Q2171.54 139.289 2168.13 139.289 M2168.13 135.678 Q2173.69 135.678 2176.86 139.289 Q2180.03 142.9 2180.03 149.289 Q2180.03 155.655 2176.86 159.289 Q2173.69 162.9 2168.13 162.9 Q2162.56 162.9 2159.38 159.289 Q2156.24 155.655 2156.24 149.289 Q2156.24 142.9 2159.38 139.289 Q2162.56 135.678 2168.13 135.678 Z" fill="#000000" fill-rule="nonzero" fill-opacity="1" /><path clip-path="url(#clip740)" d="M2208.64 146.581 L2208.64 162.229 L2204.38 162.229 L2204.38 146.719 Q2204.38 143.039 2202.95 141.21 Q2201.51 139.382 2198.64 139.382 Q2195.19 139.382 2193.2 141.581 Q2191.21 143.78 2191.21 147.576 L2191.21 162.229 L2186.93 162.229 L2186.93 136.303 L2191.21 136.303 L2191.21 140.331 Q2192.74 137.993 2194.8 136.835 Q2196.88 135.678 2199.59 135.678 Q2204.06 135.678 2206.35 138.456 Q2208.64 141.21 2208.64 146.581 Z" fill="#000000" fill-rule="nonzero" fill-opacity="1" /><path clip-path="url(#clip740)" d="M2216.47 126.257 L2220.17 126.257 Q2223.64 131.72 2225.36 136.951 Q2227.09 142.182 2227.09 147.344 Q2227.09 152.53 2225.36 157.784 Q2223.64 163.039 2220.17 168.479 L2216.47 168.479 Q2219.55 163.178 2221.05 157.946 Q2222.58 152.692 2222.58 147.344 Q2222.58 141.997 2221.05 136.789 Q2219.55 131.581 2216.47 126.257 Z" fill="#000000" fill-rule="nonzero" fill-opacity="1" /><polyline clip-path="url(#clip740)" style="stroke:#e26f46; stroke-linecap:round; stroke-linejoin:round; stroke-width:8; stroke-opacity:1; fill:none" points="1493.99,196.789 1637.25,196.789 "/>
<path clip-path="url(#clip740)" d="M1661.12 178.05 L1670.94 178.05 L1670.94 181.36 L1665.38 181.36 L1665.38 217.008 L1670.94 217.008 L1670.94 220.319 L1661.12 220.319 L1661.12 178.05 Z" fill="#000000" fill-rule="nonzero" fill-opacity="1" /><path clip-path="url(#clip740)" d="M1691.75 184.115 L1685.41 201.314 L1698.11 201.314 L1691.75 184.115 M1689.11 179.509 L1694.41 179.509 L1707.58 214.069 L1702.72 214.069 L1699.57 205.203 L1683.99 205.203 L1680.85 214.069 L1675.91 214.069 L1689.11 179.509 Z" fill="#000000" fill-rule="nonzero" fill-opacity="1" /><path clip-path="url(#clip740)" d="M1731.05 201.129 Q1731.05 196.43 1729.11 193.768 Q1727.19 191.083 1723.81 191.083 Q1720.43 191.083 1718.48 193.768 Q1716.56 196.43 1716.56 201.129 Q1716.56 205.828 1718.48 208.513 Q1720.43 211.175 1723.81 211.175 Q1727.19 211.175 1729.11 208.513 Q1731.05 205.828 1731.05 201.129 M1716.56 192.078 Q1717.91 189.763 1719.94 188.652 Q1722 187.518 1724.85 187.518 Q1729.57 187.518 1732.51 191.268 Q1735.47 195.018 1735.47 201.129 Q1735.47 207.24 1732.51 210.99 Q1729.57 214.74 1724.85 214.74 Q1722 214.74 1719.94 213.629 Q1717.91 212.495 1716.56 210.18 L1716.56 214.069 L1712.28 214.069 L1712.28 178.05 L1716.56 178.05 L1716.56 192.078 Z" fill="#000000" fill-rule="nonzero" fill-opacity="1" /><path clip-path="url(#clip740)" d="M1752.49 178.05 L1752.49 220.319 L1742.67 220.319 L1742.67 217.008 L1748.21 217.008 L1748.21 181.36 L1742.67 181.36 L1742.67 178.05 L1752.49 178.05 Z" fill="#000000" fill-rule="nonzero" fill-opacity="1" /><path clip-path="url(#clip740)" d="M1776.65 192.541 L1806.33 192.541 L1806.33 196.43 L1776.65 196.43 L1776.65 192.541 M1776.65 201.985 L1806.33 201.985 L1806.33 205.921 L1776.65 205.921 L1776.65 201.985 Z" fill="#000000" fill-rule="nonzero" fill-opacity="1" /><path clip-path="url(#clip740)" d="M1832.3 210.133 L1839.94 210.133 L1839.94 183.768 L1831.63 185.435 L1831.63 181.175 L1839.9 179.509 L1844.57 179.509 L1844.57 210.133 L1852.21 210.133 L1852.21 214.069 L1832.3 214.069 L1832.3 210.133 Z" fill="#000000" fill-rule="nonzero" fill-opacity="1" /><path clip-path="url(#clip740)" d="M1871.65 182.587 Q1868.04 182.587 1866.21 186.152 Q1864.41 189.694 1864.41 196.823 Q1864.41 203.93 1866.21 207.495 Q1868.04 211.036 1871.65 211.036 Q1875.29 211.036 1877.09 207.495 Q1878.92 203.93 1878.92 196.823 Q1878.92 189.694 1877.09 186.152 Q1875.29 182.587 1871.65 182.587 M1871.65 178.884 Q1877.46 178.884 1880.52 183.49 Q1883.6 188.073 1883.6 196.823 Q1883.6 205.55 1880.52 210.157 Q1877.46 214.74 1871.65 214.74 Q1865.84 214.74 1862.77 210.157 Q1859.71 205.55 1859.71 196.823 Q1859.71 188.073 1862.77 183.49 Q1865.84 178.884 1871.65 178.884 Z" fill="#000000" fill-rule="nonzero" fill-opacity="1" /><path clip-path="url(#clip740)" d="M1901.82 182.587 Q1898.21 182.587 1896.38 186.152 Q1894.57 189.694 1894.57 196.823 Q1894.57 203.93 1896.38 207.495 Q1898.21 211.036 1901.82 211.036 Q1905.45 211.036 1907.26 207.495 Q1909.08 203.93 1909.08 196.823 Q1909.08 189.694 1907.26 186.152 Q1905.45 182.587 1901.82 182.587 M1901.82 178.884 Q1907.63 178.884 1910.68 183.49 Q1913.76 188.073 1913.76 196.823 Q1913.76 205.55 1910.68 210.157 Q1907.63 214.74 1901.82 214.74 Q1896.01 214.74 1892.93 210.157 Q1889.87 205.55 1889.87 196.823 Q1889.87 188.073 1892.93 183.49 Q1896.01 178.884 1901.82 178.884 Z" fill="#000000" fill-rule="nonzero" fill-opacity="1" /><path clip-path="url(#clip740)" d="M1921.98 208.189 L1926.86 208.189 L1926.86 214.069 L1921.98 214.069 L1921.98 208.189 Z" fill="#000000" fill-rule="nonzero" fill-opacity="1" /><path clip-path="url(#clip740)" d="M1947.05 182.587 Q1943.44 182.587 1941.61 186.152 Q1939.8 189.694 1939.8 196.823 Q1939.8 203.93 1941.61 207.495 Q1943.44 211.036 1947.05 211.036 Q1950.68 211.036 1952.49 207.495 Q1954.32 203.93 1954.32 196.823 Q1954.32 189.694 1952.49 186.152 Q1950.68 182.587 1947.05 182.587 M1947.05 178.884 Q1952.86 178.884 1955.91 183.49 Q1958.99 188.073 1958.99 196.823 Q1958.99 205.55 1955.91 210.157 Q1952.86 214.74 1947.05 214.74 Q1941.24 214.74 1938.16 210.157 Q1935.1 205.55 1935.1 196.823 Q1935.1 188.073 1938.16 183.49 Q1941.24 178.884 1947.05 178.884 Z" fill="#000000" fill-rule="nonzero" fill-opacity="1" /><path clip-path="url(#clip740)" d="M1991.91 178.097 Q1988.81 183.421 1987.3 188.629 Q1985.8 193.837 1985.8 199.184 Q1985.8 204.532 1987.3 209.786 Q1988.83 215.018 1991.91 220.319 L1988.2 220.319 Q1984.73 214.879 1983 209.624 Q1981.28 204.37 1981.28 199.184 Q1981.28 194.022 1983 188.791 Q1984.71 183.56 1988.2 178.097 L1991.91 178.097 Z" fill="#000000" fill-rule="nonzero" fill-opacity="1" /><path clip-path="url(#clip740)" d="M2016.7 188.907 L2016.7 192.934 Q2014.89 192.009 2012.95 191.546 Q2011.01 191.083 2008.92 191.083 Q2005.75 191.083 2004.15 192.055 Q2002.58 193.027 2002.58 194.971 Q2002.58 196.453 2003.71 197.309 Q2004.85 198.143 2008.27 198.907 L2009.73 199.231 Q2014.27 200.203 2016.17 201.985 Q2018.09 203.745 2018.09 206.916 Q2018.09 210.527 2015.22 212.633 Q2012.37 214.74 2007.37 214.74 Q2005.29 214.74 2003.02 214.323 Q2000.77 213.93 1998.27 213.12 L1998.27 208.721 Q2000.64 209.948 2002.93 210.573 Q2005.22 211.175 2007.46 211.175 Q2010.47 211.175 2012.09 210.157 Q2013.71 209.115 2013.71 207.24 Q2013.71 205.504 2012.53 204.578 Q2011.38 203.652 2007.42 202.796 L2005.94 202.448 Q2001.98 201.615 2000.22 199.902 Q1998.46 198.166 1998.46 195.157 Q1998.46 191.499 2001.05 189.509 Q2003.64 187.518 2008.41 187.518 Q2010.77 187.518 2012.86 187.865 Q2014.94 188.212 2016.7 188.907 Z" fill="#000000" fill-rule="nonzero" fill-opacity="1" /><path clip-path="url(#clip740)" d="M2024.87 188.143 L2029.13 188.143 L2029.13 214.069 L2024.87 214.069 L2024.87 188.143 M2024.87 178.05 L2029.13 178.05 L2029.13 183.444 L2024.87 183.444 L2024.87 178.05 Z" fill="#000000" fill-rule="nonzero" fill-opacity="1" /><path clip-path="url(#clip740)" d="M2058.23 193.12 Q2059.82 190.249 2062.05 188.884 Q2064.27 187.518 2067.28 187.518 Q2071.33 187.518 2073.53 190.365 Q2075.73 193.189 2075.73 198.421 L2075.73 214.069 L2071.44 214.069 L2071.44 198.559 Q2071.44 194.833 2070.13 193.027 Q2068.81 191.222 2066.1 191.222 Q2062.79 191.222 2060.87 193.421 Q2058.94 195.62 2058.94 199.416 L2058.94 214.069 L2054.66 214.069 L2054.66 198.559 Q2054.66 194.809 2053.34 193.027 Q2052.02 191.222 2049.27 191.222 Q2046.01 191.222 2044.08 193.444 Q2042.16 195.643 2042.16 199.416 L2042.16 214.069 L2037.88 214.069 L2037.88 188.143 L2042.16 188.143 L2042.16 192.171 Q2043.62 189.786 2045.66 188.652 Q2047.69 187.518 2050.5 187.518 Q2053.32 187.518 2055.29 188.953 Q2057.28 190.388 2058.23 193.12 Z" fill="#000000" fill-rule="nonzero" fill-opacity="1" /><path clip-path="url(#clip740)" d="M2083.78 203.837 L2083.78 188.143 L2088.04 188.143 L2088.04 203.675 Q2088.04 207.356 2089.48 209.208 Q2090.91 211.036 2093.78 211.036 Q2097.23 211.036 2099.22 208.837 Q2101.24 206.638 2101.24 202.842 L2101.24 188.143 L2105.5 188.143 L2105.5 214.069 L2101.24 214.069 L2101.24 210.087 Q2099.69 212.448 2097.63 213.606 Q2095.59 214.74 2092.88 214.74 Q2088.41 214.74 2086.1 211.962 Q2083.78 209.184 2083.78 203.837 M2094.5 187.518 L2094.5 187.518 Z" fill="#000000" fill-rule="nonzero" fill-opacity="1" /><path clip-path="url(#clip740)" d="M2114.27 178.05 L2118.53 178.05 L2118.53 214.069 L2114.27 214.069 L2114.27 178.05 Z" fill="#000000" fill-rule="nonzero" fill-opacity="1" /><path clip-path="url(#clip740)" d="M2139.22 201.036 Q2134.06 201.036 2132.07 202.217 Q2130.08 203.397 2130.08 206.245 Q2130.08 208.513 2131.56 209.856 Q2133.06 211.175 2135.63 211.175 Q2139.18 211.175 2141.31 208.675 Q2143.46 206.152 2143.46 201.985 L2143.46 201.036 L2139.22 201.036 M2147.72 199.277 L2147.72 214.069 L2143.46 214.069 L2143.46 210.133 Q2142 212.495 2139.82 213.629 Q2137.65 214.74 2134.5 214.74 Q2130.52 214.74 2128.16 212.518 Q2125.82 210.272 2125.82 206.522 Q2125.82 202.147 2128.74 199.925 Q2131.68 197.703 2137.49 197.703 L2143.46 197.703 L2143.46 197.286 Q2143.46 194.347 2141.51 192.749 Q2139.59 191.129 2136.1 191.129 Q2133.88 191.129 2131.77 191.661 Q2129.66 192.194 2127.72 193.259 L2127.72 189.323 Q2130.06 188.421 2132.25 187.981 Q2134.45 187.518 2136.54 187.518 Q2142.16 187.518 2144.94 190.434 Q2147.72 193.351 2147.72 199.277 Z" fill="#000000" fill-rule="nonzero" fill-opacity="1" /><path clip-path="url(#clip740)" d="M2160.7 180.782 L2160.7 188.143 L2169.48 188.143 L2169.48 191.453 L2160.7 191.453 L2160.7 205.527 Q2160.7 208.698 2161.56 209.601 Q2162.44 210.504 2165.1 210.504 L2169.48 210.504 L2169.48 214.069 L2165.1 214.069 Q2160.17 214.069 2158.3 212.24 Q2156.42 210.388 2156.42 205.527 L2156.42 191.453 L2153.3 191.453 L2153.3 188.143 L2156.42 188.143 L2156.42 180.782 L2160.7 180.782 Z" fill="#000000" fill-rule="nonzero" fill-opacity="1" /><path clip-path="url(#clip740)" d="M2175.08 188.143 L2179.34 188.143 L2179.34 214.069 L2175.08 214.069 L2175.08 188.143 M2175.08 178.05 L2179.34 178.05 L2179.34 183.444 L2175.08 183.444 L2175.08 178.05 Z" fill="#000000" fill-rule="nonzero" fill-opacity="1" /><path clip-path="url(#clip740)" d="M2198.3 191.129 Q2194.87 191.129 2192.88 193.814 Q2190.89 196.476 2190.89 201.129 Q2190.89 205.782 2192.86 208.467 Q2194.85 211.129 2198.3 211.129 Q2201.7 211.129 2203.69 208.444 Q2205.68 205.758 2205.68 201.129 Q2205.68 196.522 2203.69 193.837 Q2201.7 191.129 2198.3 191.129 M2198.3 187.518 Q2203.85 187.518 2207.02 191.129 Q2210.19 194.74 2210.19 201.129 Q2210.19 207.495 2207.02 211.129 Q2203.85 214.74 2198.3 214.74 Q2192.72 214.74 2189.55 211.129 Q2186.4 207.495 2186.4 201.129 Q2186.4 194.74 2189.55 191.129 Q2192.72 187.518 2198.3 187.518 Z" fill="#000000" fill-rule="nonzero" fill-opacity="1" /><path clip-path="url(#clip740)" d="M2238.81 198.421 L2238.81 214.069 L2234.55 214.069 L2234.55 198.559 Q2234.55 194.879 2233.11 193.05 Q2231.68 191.222 2228.81 191.222 Q2225.36 191.222 2223.37 193.421 Q2221.37 195.62 2221.37 199.416 L2221.37 214.069 L2217.09 214.069 L2217.09 188.143 L2221.37 188.143 L2221.37 192.171 Q2222.9 189.833 2224.96 188.675 Q2227.05 187.518 2229.75 187.518 Q2234.22 187.518 2236.51 190.296 Q2238.81 193.05 2238.81 198.421 Z" fill="#000000" fill-rule="nonzero" fill-opacity="1" /><path clip-path="url(#clip740)" d="M2246.63 178.097 L2250.33 178.097 Q2253.8 183.56 2255.52 188.791 Q2257.25 194.022 2257.25 199.184 Q2257.25 204.37 2255.52 209.624 Q2253.8 214.879 2250.33 220.319 L2246.63 220.319 Q2249.71 215.018 2251.21 209.786 Q2252.74 204.532 2252.74 199.184 Q2252.74 193.837 2251.21 188.629 Q2249.71 183.421 2246.63 178.097 Z" fill="#000000" fill-rule="nonzero" fill-opacity="1" /></svg>
